<svg width="297" height="349" viewBox="0 0 297 349" fill="none" xmlns="http://www.w3.org/2000/svg">
<circle cx="148.5" cy="169.5" r="148.5" fill="url(#paint0_linear_2_131)"/>
<path fill-rule="evenodd" clip-rule="evenodd" d="M22.1449 336.849C22.1449 343.559 78.2604 349 147.484 349C216.707 349 272.823 343.559 272.823 336.849C272.823 330.139 216.707 324.699 147.484 324.699C78.2604 324.699 22.1449 330.139 22.1449 336.849Z" fill="#4B5D61" fill-opacity="0.1"/>
<path fill-rule="evenodd" clip-rule="evenodd" d="M149.181 306.158H141.143V296.91H157.609L149.181 306.158Z" fill="#F3F2EF"/>
<path fill-rule="evenodd" clip-rule="evenodd" d="M112.506 334.92H132.031L149.771 279.085C153.205 268.282 163.118 261.029 174.449 261.029H188.167C199.486 261.029 209.41 268.282 212.832 279.085L230.584 334.92H250.098L232.018 278.019C228.127 265.751 216.867 257.513 204.001 257.513H158.615C145.749 257.513 134.489 265.751 130.587 278.019L112.506 334.92Z" fill="#426AA5"/>
<path d="M112.506 334.92L125.786 293.126L112.506 334.92ZM116.197 334.92H132.031L140.335 308.785L135.357 293.126H129.476L116.197 334.92ZM234.263 334.92H250.098L248.232 329.048L245.836 327.015L245.832 327.02L241.852 323.641L239.476 327.254C239.476 327.254 235.438 324.342 229.531 320.028L234.263 334.92ZM240.798 305.652L236.818 293.126H227.5C232.595 297.695 237.204 302.109 240.798 305.652ZM217.26 281.409H233.094L232.018 278.019C228.127 265.751 216.867 257.513 204.001 257.513H198.11C200.65 258.749 203.014 260.616 205.207 262.925C210.279 266.528 214.194 271.746 216.183 278.019L217.26 281.409Z" fill="url(#paint1_linear_2_131)"/>
<path d="M112.506 334.92L125.786 293.126L112.506 334.92ZM116.197 334.92H132.031L140.335 308.785L135.357 293.126H129.476L116.197 334.92ZM234.263 334.92H250.098L248.232 329.048L245.836 327.015L245.832 327.02L241.852 323.641L239.476 327.254C239.476 327.254 235.438 324.342 229.531 320.028L234.263 334.92ZM240.798 305.652L236.818 293.126H227.5C232.595 297.695 237.204 302.109 240.798 305.652ZM217.26 281.409H233.094L232.018 278.019C228.127 265.751 216.867 257.513 204.001 257.513H198.11C200.65 258.749 203.014 260.616 205.207 262.925C210.279 266.528 214.194 271.746 216.183 278.019L217.26 281.409Z" fill="#807563"/>
<path fill-rule="evenodd" clip-rule="evenodd" d="M112.506 334.92H116.197L133.937 279.085C137.371 268.282 147.284 261.029 158.615 261.029H188.167C199.487 261.029 209.41 268.282 212.832 279.085L230.584 334.92H234.264L216.184 278.019C212.294 265.751 201.033 257.513 188.167 257.513H158.615C145.749 257.513 134.489 265.751 130.587 278.019L112.506 334.92Z" fill="#514846"/>
<path fill-rule="evenodd" clip-rule="evenodd" d="M25.0205 181.386C26.0977 179.702 27.9575 178.684 29.9561 178.684H108.737C111.022 178.684 113.098 180.012 114.056 182.086L159.876 281.408H234.239C237.475 281.408 240.098 284.031 240.098 287.267C240.098 290.503 237.475 293.126 234.239 293.126H77.3466C75.0612 293.126 72.9857 291.797 72.0283 289.724L24.6377 187C23.799 185.185 23.9433 183.069 25.0205 181.386Z" fill="#B6A68E"/>
<path fill-rule="evenodd" clip-rule="evenodd" d="M77.3468 293.126H135.357L132.33 283.606C124.219 283.366 117.069 282.842 111.104 281.409H81.097L74.879 267.931C71.6884 270.899 69.2263 274.7 67.8328 279.085L67.5422 280L72.0275 289.722C72.9745 291.775 75.0187 293.099 77.2765 293.125C77.2993 293.125 77.3231 293.126 77.3468 293.126Z" fill="#514846"/>
<path fill-rule="evenodd" clip-rule="evenodd" d="M154.878 293.126H165.459C168.694 293.126 171.318 290.502 171.318 287.267C171.318 286.311 171.089 285.41 170.683 284.613C164.165 284.207 157.901 284.03 151.957 283.927L154.878 293.126Z" fill="#30181C" stroke="#232021" stroke-width="0.6024" stroke-linecap="round" stroke-linejoin="round"/>
<path fill-rule="evenodd" clip-rule="evenodd" d="M45.5062 232.234L24.6382 187C24.2773 186.22 24.0987 185.385 24.0977 184.552C24.0968 184.015 24.1699 183.48 24.3152 182.96C23.9514 184.255 24.0293 185.68 24.6363 186.997L45.5062 232.234ZM24.586 182.201C24.7075 181.921 24.8529 181.648 25.021 181.386C26.0982 179.702 27.9581 178.685 29.9566 178.685H30.1038C30.0535 178.683 30.0031 178.683 29.9528 178.683C29.1311 178.683 28.2972 178.855 27.5021 179.222C26.1438 179.849 25.1388 180.93 24.586 182.201Z" fill="#8CAACE"/>
<path d="M59.6574 262.908C62.8415 260.652 66.4805 259.03 70.3826 258.185L35.2759 182.088C34.3098 179.994 32.2638 178.74 30.1038 178.684H29.9565C27.958 178.684 26.0981 179.702 25.0209 181.386C24.8528 181.648 24.7075 181.921 24.5859 182.201C24.5849 182.203 24.584 182.204 24.584 182.205C24.5831 182.208 24.5821 182.209 24.5811 182.211C24.4776 182.45 24.3902 182.696 24.319 182.946C24.318 182.948 24.3171 182.952 24.3161 182.955C24.3161 182.957 24.3152 182.959 24.3152 182.96C24.1698 183.479 24.0967 184.015 24.0976 184.552C24.0986 185.385 24.2772 186.22 24.6382 187L59.6574 262.908Z" fill="url(#paint2_linear_2_131)"/>
<path d="M59.6574 262.908C62.8415 260.652 66.4805 259.03 70.3826 258.185L35.2759 182.088C34.3098 179.994 32.2638 178.74 30.1038 178.684H29.9565C27.958 178.684 26.0981 179.702 25.0209 181.386C24.8528 181.648 24.7075 181.921 24.5859 182.201C24.5849 182.203 24.584 182.204 24.584 182.205C24.5831 182.208 24.5821 182.209 24.5811 182.211C24.4776 182.45 24.3902 182.696 24.319 182.946C24.318 182.948 24.3171 182.952 24.3161 182.955C24.3161 182.957 24.3152 182.959 24.3152 182.96C24.1698 183.479 24.0967 184.015 24.0976 184.552C24.0986 185.385 24.2772 186.22 24.6382 187L59.6574 262.908Z" fill="#514846"/>
<path fill-rule="evenodd" clip-rule="evenodd" d="M109.427 194.781L110.56 195.183C111.314 195.448 112.067 195.671 112.82 195.908C114.331 196.361 115.851 196.764 117.4 197.116C120.493 197.811 123.67 198.352 127.01 198.542C130.346 198.735 133.855 198.663 137.631 197.734L138.337 197.556L138.689 197.466L138.865 197.42C138.918 197.407 138.969 197.395 139.125 197.343C140.153 197.03 141.149 196.526 142.035 195.885C143.809 194.592 145.093 192.736 145.671 190.702C146.275 188.678 146.174 186.434 145.436 184.494C145.325 184.186 145.305 184.172 145.258 184.064L145.127 183.786L144.864 183.228L144.338 182.116C142.903 179.203 141.285 176.51 139.549 173.983C137.84 171.427 135.979 169.034 134.081 166.708C132.166 164.389 130.183 162.159 128.116 160.014C126.034 157.864 123.955 155.809 121.632 153.809L116.48 158.428C119.533 163.146 122.67 167.957 125.481 172.767C126.204 173.964 126.88 175.173 127.569 176.376C128.208 177.594 128.9 178.792 129.505 180.001C130.308 181.517 131.032 183.044 131.69 184.556C132.077 185.445 132.62 184.948 131.425 184.941C130.363 184.935 129.244 184.867 128.108 184.748C125.684 184.475 123.15 184.017 120.617 183.398C119.346 183.11 118.081 182.74 116.813 182.394L114.934 181.828L114.011 181.542L113.192 181.272L108.207 194.322L109.427 194.781Z" fill="url(#paint3_linear_2_131)"/>
<path fill-rule="evenodd" clip-rule="evenodd" d="M131.306 185.505C131.765 188.35 131.765 193.456 131.306 200.822C131.306 200.822 87.3281 200.782 95.3594 185.505C97.3828 178.281 130.616 181.237 131.306 185.505Z" fill="url(#paint4_linear_2_131)"/>
<path fill-rule="evenodd" clip-rule="evenodd" d="M125.174 202.101C125.173 202.099 125.172 202.098 125.172 202.096C124.688 202.069 124.028 202.028 123.228 201.967V201.968C124.03 202.029 124.691 202.072 125.174 202.101Z" fill="#C9C8C3"/>
<path fill-rule="evenodd" clip-rule="evenodd" d="M123.228 201.967V201.966C123.126 201.959 123.02 201.95 122.913 201.942C123.02 201.951 123.126 201.959 123.228 201.967Z" fill="#718FBC"/>
<path fill-rule="evenodd" clip-rule="evenodd" d="M217.207 333.6L226.853 329.849L221.467 305.841L211.821 309.593L217.207 333.6Z" fill="url(#paint5_linear_2_131)"/>
<path fill-rule="evenodd" clip-rule="evenodd" d="M225.218 325.535L215.788 325.709C215.385 325.715 215.049 326.032 214.981 326.472L213.474 336.27C213.318 337.286 214.079 338.234 215.01 338.203C218.885 338.073 220.664 337.779 225.548 337.709C228.553 337.665 237.63 337.881 241.78 337.821C245.839 337.762 246.263 333.192 244.545 332.803C236.843 331.061 229.403 328.589 226.853 326.187C226.393 325.754 225.809 325.526 225.218 325.535Z" fill="#F7CB72"/>
<path fill-rule="evenodd" clip-rule="evenodd" d="M141.431 249.924C141.431 249.924 162.796 249.813 194.133 256.15C215.842 260.539 226.401 311.499 226.401 311.499L210.892 317.031C210.892 317.031 200.472 282.405 190.469 274.856C177.941 274.795 166.924 275.645 157.325 276.496C127.048 279.18 110.887 281.863 105.991 255.93C114.599 252.459 141.431 249.924 141.431 249.924Z" fill="#28141A"/>
<path fill-rule="evenodd" clip-rule="evenodd" d="M229.604 314.411L208.732 318.774L207.066 311.883L228.838 306.891L229.604 314.411Z" fill="#704653"/>
<path fill-rule="evenodd" clip-rule="evenodd" d="M117.948 149.455L113.805 147.543C110.185 146.872 105.119 144.921 103.949 146.069C103.532 146.478 104.148 148.082 105.796 150.881L109.384 155.114C109.384 155.114 114.657 161.783 120.723 159.698L122.828 154.827L117.948 149.455Z" fill="url(#paint6_linear_2_131)"/>
<path fill-rule="evenodd" clip-rule="evenodd" d="M108.172 164.705L116.809 157.745C117.189 157.438 117.223 156.902 116.885 156.548L101.96 140.891C101.622 140.536 101.041 140.497 100.661 140.804L92.0252 147.763C91.6443 148.07 91.6111 148.606 91.9483 148.961L106.873 164.618C107.211 164.972 107.792 165.012 108.172 164.705Z" fill="#1A282B"/>
<path fill-rule="evenodd" clip-rule="evenodd" d="M91.4459 258.395C91.4459 258.395 75.6826 235.179 68.0133 197.769C66.2066 188.957 72.756 180.653 81.7391 180.181C89.3096 179.783 97.3618 179.682 103.873 179.708C110.41 179.735 116.149 184.071 117.943 190.357C121.906 204.246 128.724 224.803 141.431 249.924L91.4459 258.395Z" fill="url(#paint7_linear_2_131)"/>
<path fill-rule="evenodd" clip-rule="evenodd" d="M76.23 226.754C76.2309 226.754 76.2319 226.753 76.2319 226.752C75.2696 224.12 74.316 221.343 73.3917 218.428C74.315 221.344 75.2668 224.122 76.23 226.754Z" fill="#718FBC"/>
<path fill-rule="evenodd" clip-rule="evenodd" d="M109.88 180.781C110.311 178.766 103.142 172.263 94.7896 173.727C93.834 173.895 93.1948 174.806 93.3629 175.762C93.5291 176.717 94.4277 177.358 95.3966 177.191C101.435 176.133 105.911 182.803 105.956 182.872C106.42 183.568 109.448 182.796 109.88 180.781Z" fill="#514846"/>
<path fill-rule="evenodd" clip-rule="evenodd" d="M81.5984 156.363C84.0719 163.08 87.2331 175.236 83.4041 180.099C87.6273 183.528 92.6189 186.18 100.503 185.92C108.387 185.66 106.781 182.506 104.204 179.715C96.5315 178.412 95.7421 171.957 96.1078 166.578L81.5984 156.363Z" fill="url(#paint8_linear_2_131)"/>
<path fill-rule="evenodd" clip-rule="evenodd" d="M113.895 184.252C113.895 187.662 111.132 190.427 107.722 190.427C104.312 190.427 101.547 187.662 101.547 184.252C101.547 180.842 104.312 178.078 107.722 178.078C111.132 178.078 113.895 180.842 113.895 184.252Z" fill="#514846"/>
<path fill-rule="evenodd" clip-rule="evenodd" d="M106.88 189.75C109.727 189.75 112.034 187.105 112.034 183.842C112.034 180.58 109.727 177.935 106.88 177.935C104.033 177.935 101.725 180.58 101.725 183.842C101.725 184.565 101.838 185.258 102.045 185.898C102.774 188.147 104.663 189.75 106.88 189.75Z" fill="#1A282B"/>
<path fill-rule="evenodd" clip-rule="evenodd" d="M96.1192 170.372C96.0926 170.119 96.0726 169.863 96.0584 169.607C96.0698 169.862 96.0859 170.117 96.1078 170.371C96.1116 170.371 96.1154 170.371 96.1192 170.372Z" fill="#C9C8C3"/>
<path fill-rule="evenodd" clip-rule="evenodd" d="M95.5344 166.175L93.9947 165.091L95.5344 166.175Z" fill="#C4C3BF"/>
<path fill-rule="evenodd" clip-rule="evenodd" d="M96.0395 166.531V166.53L95.5341 166.175L96.0395 166.531Z" fill="#BCBBB7"/>
<path fill-rule="evenodd" clip-rule="evenodd" d="M78.8542 147.022C81.0589 155.93 81.8939 161.232 87.3158 165.239C95.4705 171.264 105.898 165.675 106.415 156.424C106.88 148.097 103.196 134.928 93.6724 132.524C84.2885 130.157 76.6486 138.113 78.8542 147.022Z" fill="url(#paint9_linear_2_131)"/>
<path d="M87.5 154.161C87.5 154.161 90.4498 156.328 92.4059 157.994C94.3619 159.66 98.6001 154.161 98.6001 154.161H105.302C106.422 156.077 106.906 158.298 106.684 160.506C106.249 164.028 103.46 169.308 103.46 169.308C100.711 171.189 97.3493 171.955 94.0566 171.451C88.8024 170.494 86.1867 167.734 82.2941 163.205C80.5771 161.208 79.585 156.404 80.1674 154.787C80.9064 152.738 84.5 147.451 84.5 146C86 151.5 87.5 154.161 87.5 154.161Z" fill="#190C1A"/>
<path d="M98.045 157.994C99.7644 159.137 102.001 159.137 103.721 157.994" stroke="#79554B" stroke-width="0.831558" stroke-linecap="round"/>
<path fill-rule="evenodd" clip-rule="evenodd" d="M82.9368 140.221C86.2357 136.608 101.905 142.441 103.712 134.433C105.518 126.427 96.5343 124.571 93.0198 128.33C91.0222 130.466 86.0182 126.25 83.7916 129.502C80.0814 134.921 74.6709 131.992 73.1159 137.086C71.8212 141.326 78.5806 144.993 82.9368 140.221Z" fill="#190C1A"/>
<path fill-rule="evenodd" clip-rule="evenodd" d="M76.1919 141.187C76.1919 141.187 73.0022 139.039 70.1212 143.791C72.5462 142 76.1919 141.187 76.1919 141.187Z" fill="#190C1A"/>
<path fill-rule="evenodd" clip-rule="evenodd" d="M75.8336 139.95L79.7395 138.339C85.208 140.341 85.0617 144.246 85.0617 147.909C85.0617 152.482 87.9911 155.114 87.9911 155.114L82.9131 156.746C82.9131 156.746 64.8976 149.129 75.8336 139.95Z" fill="#190C1A"/>
<path fill-rule="evenodd" clip-rule="evenodd" d="M79.1808 158.01C80.9846 159.361 83.2358 159.806 85.0539 159.578C87.7886 159.236 87.9862 156.607 86.246 154.643C84.6796 152.876 81.3693 150.924 79.0953 152.257C76.8555 153.572 77.1176 156.463 79.1808 158.01Z" fill="url(#paint10_linear_2_131)"/>
<path fill-rule="evenodd" clip-rule="evenodd" d="M255.939 335.587L261.379 326.782L242.618 310.864L237.178 319.668L255.939 335.587Z" fill="url(#paint11_linear_2_131)"/>
<path fill-rule="evenodd" clip-rule="evenodd" d="M258.189 323.732L249.47 330.414C249.178 330.638 249.125 331.072 249.343 331.458L254.197 340.047C254.701 340.937 255.834 341.277 256.498 340.745C259.256 338.539 261.141 336.776 264.675 334.067C266.848 332.4 273.627 327.642 276.629 325.343C279.564 323.092 277.097 319.236 275.602 319.861C268.903 322.661 263.111 323.881 259.784 323.361C259.184 323.267 258.618 323.404 258.189 323.732Z" fill="#F7CB72"/>
<path fill-rule="evenodd" clip-rule="evenodd" d="M245.832 327.02L245.836 327.016L241.855 323.637L241.852 323.642L245.832 327.02Z" fill="#263664"/>
<path fill-rule="evenodd" clip-rule="evenodd" d="M128.031 252.196C128.031 252.196 160.331 257.88 190.75 267.717C211.824 274.532 248.524 313.495 248.524 313.495L239.477 327.254C239.477 327.254 194.082 294.521 184.995 285.889C133.315 279.756 93.9928 293.061 91.4462 258.396C100.391 255.921 128.031 252.196 128.031 252.196Z" fill="#3C2129"/>
<path fill-rule="evenodd" clip-rule="evenodd" d="M214.536 255.283H113.7C112.428 255.283 111.387 256.324 111.387 257.596H216.849C216.849 256.324 215.808 255.283 214.536 255.283Z" fill="#426AA5"/>
<path fill-rule="evenodd" clip-rule="evenodd" d="M111.387 257.596C111.387 256.324 112.428 255.283 113.7 255.283H143.123C144.396 255.283 145.437 256.324 145.437 257.596H216.849C216.849 256.324 215.808 255.283 214.536 255.283H113.7C112.428 255.283 111.387 256.324 111.387 257.596Z" fill="url(#paint12_linear_2_131)"/>
<path fill-rule="evenodd" clip-rule="evenodd" d="M111.387 257.596H145.437C145.437 256.324 144.396 255.283 143.123 255.283H113.7C112.428 255.283 111.387 256.324 111.387 257.596Z" fill="#A1A7C4"/>
<path fill-rule="evenodd" clip-rule="evenodd" d="M226.694 203.725H156.109C153.854 203.725 151.59 205.571 151.079 207.827L141.263 251.181C140.752 253.437 142.18 255.283 144.436 255.283H215.021C217.276 255.283 219.539 253.437 220.05 251.181L229.866 207.827C230.377 205.571 228.95 203.725 226.694 203.725Z" fill="#A1A7C4"/>
<path fill-rule="evenodd" clip-rule="evenodd" d="M144.436 255.283H215.021C217.276 255.283 219.539 253.437 220.05 251.181L229.867 207.827C229.937 207.518 229.97 207.218 229.97 206.928C229.972 205.1 228.641 203.725 226.694 203.725H156.109C154.291 203.725 152.468 204.925 151.562 206.571C151.749 206.232 151.975 205.913 152.233 205.618C152.427 205.396 152.673 205.299 152.917 205.299C153.468 205.299 154.001 205.8 153.852 206.457L143.246 253.334C143.138 253.81 142.722 254.073 142.309 254.073C141.986 254.073 141.665 253.912 141.495 253.57C141.473 253.525 141.452 253.481 141.433 253.435C141.916 254.547 143.011 255.283 144.436 255.283ZM141.161 252.01C141.167 251.743 141.201 251.468 141.266 251.186L146.021 230.167L141.263 251.181C141.199 251.465 141.166 251.742 141.161 252.01Z" fill="white"/>
<path d="M188.647 236.616C187.073 235.671 187.002 232.899 188.488 230.426C189.974 227.953 192.454 226.714 194.028 227.66C195.602 228.606 195.673 231.377 194.187 233.85C192.701 236.324 190.221 237.562 188.647 236.616Z" fill="#D6D6D6"/>
<path fill-rule="evenodd" clip-rule="evenodd" d="M252.835 313.888L238.801 329.944L233.321 325.447L247.692 308.347L252.835 313.888Z" fill="#704653"/>
<path fill-rule="evenodd" clip-rule="evenodd" d="M70.2274 192.965C68.6145 199.974 67.374 206.856 66.4821 213.994C66.0489 217.557 65.6937 221.152 65.5683 224.886C65.5027 226.755 65.4828 228.659 65.5863 230.676C65.6471 231.686 65.7364 232.726 65.8998 233.844C66.0708 234.968 66.2902 236.159 66.7803 237.606C67.0453 238.343 67.3949 239.188 67.9658 240.104C68.3799 240.736 68.8197 241.328 69.2747 241.846C70.1838 242.895 71.1327 243.737 72.075 244.461C73.9757 245.888 75.8517 246.876 77.6973 247.722C81.38 249.389 85.0067 250.374 88.5934 251.217C92.1916 252.004 95.7603 252.571 99.3309 252.958C102.918 253.339 106.424 253.584 110.093 253.584L110.835 246.704C104.329 245.075 97.6762 243.298 91.5513 241.036C88.487 239.932 85.5338 238.63 83.0091 237.193C81.7657 236.469 80.641 235.68 79.846 234.92C79.4442 234.55 79.1316 234.192 78.9379 233.902C78.8343 233.757 78.7792 233.634 78.7298 233.535C78.8533 233.706 78.8733 233.745 78.859 233.662C78.8258 233.454 78.7431 232.93 78.708 232.334C78.6681 231.73 78.6567 231.037 78.67 230.315C78.6842 228.864 78.7773 227.299 78.9255 225.708C79.2333 222.519 79.6845 219.221 80.2088 215.916C81.266 209.32 82.5474 202.553 83.8621 196.006L70.2274 192.965Z" fill="url(#paint13_linear_2_131)"/>
<path fill-rule="evenodd" clip-rule="evenodd" d="M83.4043 180.1C77.4504 178.004 64.2304 182.202 63.3641 215.023L78.4715 219.642C80.4107 223.296 89.3582 182.195 83.4043 180.1Z" fill="url(#paint14_linear_2_131)"/>
<path fill-rule="evenodd" clip-rule="evenodd" d="M85.3724 185.219C85.3724 188.94 88.3883 191.956 92.109 191.956C95.8297 191.956 98.8465 188.94 98.8465 185.219C98.8465 181.498 95.8297 178.481 92.109 178.481C88.3883 178.481 85.3724 181.498 85.3724 185.219Z" fill="#1A282B"/>
<path fill-rule="evenodd" clip-rule="evenodd" d="M94.1265 187.678C94.4381 186.761 93.948 185.763 93.0304 185.451C92.924 185.414 85.5343 182.771 85.0632 176.663C85.0244 176.155 85.078 175.142 85.1475 173.974C82.6658 174.127 80.1509 177.684 82.4451 181.423C84.7393 185.163 91.4973 188.642 91.8991 188.779C92.0852 188.842 92.2752 188.872 92.4624 188.872C93.1957 188.872 93.8796 188.411 94.1265 187.678Z" fill="#514846"/>
<path fill-rule="evenodd" clip-rule="evenodd" d="M84.754 185.219C84.754 188.482 87.0612 191.127 89.908 191.127C92.7548 191.127 95.063 188.482 95.063 185.219C95.063 181.956 92.7548 179.312 89.908 179.312C87.0612 179.312 84.754 181.956 84.754 185.219Z" fill="#1A282B"/>
<path fill-rule="evenodd" clip-rule="evenodd" d="M89.908 191.127C92.7548 191.127 95.063 188.482 95.063 185.219C95.063 181.956 92.7548 179.312 89.908 179.312C87.0612 179.312 84.754 181.956 84.754 185.219C84.754 187.534 85.9157 189.538 87.6074 190.506C88.2999 190.903 89.0816 191.127 89.908 191.127Z" fill="#514846"/>
<path fill-rule="evenodd" clip-rule="evenodd" d="M110.699 257.607L118.024 260.667L123.048 252.76C119.128 250.276 116.285 248.65 114.52 247.885C112.754 247.119 110.075 246.736 106.481 246.736C105.441 246.588 104.411 247.069 103.856 247.961L101.965 251.004C101.922 255.374 110.699 257.607 110.699 257.607Z" fill="url(#paint15_linear_2_131)"/>
<path fill-rule="evenodd" clip-rule="evenodd" d="M126.861 252.355H126.862C126.851 252.239 126.845 252.119 126.845 251.997C126.845 251.974 126.845 251.952 126.846 251.928C126.842 252.073 126.848 252.216 126.861 252.355Z" fill="#1D4282"/>
<path fill-rule="evenodd" clip-rule="evenodd" d="M127.118 253.353C126.984 253.046 126.898 252.71 126.862 252.355H126.861C126.896 252.71 126.983 253.046 127.118 253.353Z" fill="#0F1516"/>
<path fill-rule="evenodd" clip-rule="evenodd" d="M131.855 229.43L133.186 223.553L133.185 223.551L131.855 229.429V229.43Z" fill="#556A8B"/>
<path fill-rule="evenodd" clip-rule="evenodd" d="M131.707 230.085L131.855 229.43V229.429L131.707 230.085Z" fill="#1D4282"/>
<path fill-rule="evenodd" clip-rule="evenodd" d="M137.245 206.493C137.246 206.492 137.246 206.49 137.247 206.489C137.246 206.49 137.246 206.492 137.245 206.493Z" fill="#92938F"/>
<path fill-rule="evenodd" clip-rule="evenodd" d="M30.5672 334.92H50.092L67.833 279.085C71.2659 268.282 81.1788 261.029 92.51 261.029H106.228C117.547 261.029 127.471 268.282 130.893 279.085L148.645 334.92H168.159L150.079 278.019C146.188 265.751 134.928 257.513 122.062 257.513H76.6754C63.8093 257.513 52.5494 265.751 48.6473 278.019L30.5672 334.92Z" fill="#426AA5"/>
<path d="M30.5672 334.92H50.092L67.833 279.085C69.2265 274.7 71.6886 270.899 74.8792 267.931C79.3664 263.758 85.2947 261.231 91.7235 261.04C91.9847 261.033 92.2468 261.029 92.51 261.029H106.228C117.547 261.029 127.471 268.282 130.893 279.085L148.645 334.92H168.159L150.079 278.019C146.188 265.751 134.928 257.513 122.062 257.513H76.6754C63.8093 257.513 52.5494 265.751 48.6473 278.019L30.5672 334.92Z" fill="url(#paint16_linear_2_131)"/>
<path d="M30.5672 334.92H50.092L67.833 279.085C69.2265 274.7 71.6886 270.899 74.8792 267.931C79.3664 263.758 85.2947 261.231 91.7235 261.04C91.9847 261.033 92.2468 261.029 92.51 261.029H106.228C117.547 261.029 127.471 268.282 130.893 279.085L148.645 334.92H168.159L150.079 278.019C146.188 265.751 134.928 257.513 122.062 257.513H76.6754C63.8093 257.513 52.5494 265.751 48.6473 278.019L30.5672 334.92Z" fill="#B6A68E"/>
<path fill-rule="evenodd" clip-rule="evenodd" d="M30.567 334.92H34.2573L51.9982 279.085C55.4311 268.282 65.3441 261.029 76.6752 261.029H106.228C117.547 261.029 127.471 268.282 130.893 279.085L148.645 334.92H152.325L134.245 278.019C130.354 265.751 119.093 257.513 106.228 257.513H76.6752C63.8091 257.513 52.5492 265.751 48.647 278.019L30.567 334.92Z" fill="#514846"/>
<path fill-rule="evenodd" clip-rule="evenodd" d="M168.833 52.3397C170.211 54.0561 171.923 55.4937 171.085 57.9013C170.247 60.3088 166.64 58.7922 166.051 60.3377C165.461 61.8832 168.783 63.3943 168.027 65.9135C167.272 68.4328 164.093 67.6739 163.503 68.8344C162.914 69.9949 164.664 72.0301 164.3 73.2514C163.935 74.4727 162.998 75.211 162.065 73.6551C161.131 72.0991 160.024 70.3734 160.999 67.7492C161.974 65.125 164.807 66.8217 165.286 64.9803C165.766 63.1389 162.36 61.6415 163.23 59.1789C164.1 56.7162 167.631 58.1899 168.182 56.7828C168.733 55.3757 165.989 52.781 166.141 51.7437C166.293 50.7064 167.455 50.6233 168.833 52.3397Z" fill="#DCF6E6"/>
<path fill-rule="evenodd" clip-rule="evenodd" d="M261.692 107.254C261.759 109.454 262.261 111.632 260.143 113.051C258.025 114.47 256.057 111.088 254.656 111.967C253.255 112.846 254.999 116.052 252.879 117.61C250.76 119.167 248.677 116.648 247.508 117.22C246.339 117.792 246.512 120.471 245.486 121.227C244.46 121.983 243.267 122.008 243.458 120.204C243.649 118.399 243.804 116.355 246.161 114.846C248.519 113.337 249.761 116.397 251.252 115.215C252.743 114.033 250.924 110.787 253.101 109.344C255.278 107.901 257.211 111.203 258.498 110.41C259.784 109.618 259.155 105.895 259.9 105.158C260.646 104.421 261.624 105.054 261.692 107.254Z" fill="#DCF6E6"/>
<mask id="path-69-inside-1_2_131" fill="white">
<path fill-rule="evenodd" clip-rule="evenodd" d="M219.218 26.8528C219.218 27.2946 219.177 27.7269 219.099 28.1462C225.882 30.3405 231.128 36.1443 232.386 43.4899L238.428 78.7587L246.297 82.3473C252.164 85.0231 250.256 93.8064 243.807 93.8064H184.009C177.69 93.8064 175.664 85.2976 181.305 82.4501L188.619 78.7587L193.666 43.9839C194.678 37.0128 199.281 31.3436 205.435 28.7402C205.268 28.1396 205.179 27.5066 205.179 26.8528C205.179 22.9759 208.322 19.8331 212.198 19.8331C216.075 19.8331 219.218 22.9759 219.218 26.8528ZM222.887 96.8051C222.887 102.5 217.981 107.117 211.93 107.117C205.879 107.117 200.973 102.5 200.973 96.8051H222.887Z"/>
</mask>
<path fill-rule="evenodd" clip-rule="evenodd" d="M219.218 26.8528C219.218 27.2946 219.177 27.7269 219.099 28.1462C225.882 30.3405 231.128 36.1443 232.386 43.4899L238.428 78.7587L246.297 82.3473C252.164 85.0231 250.256 93.8064 243.807 93.8064H184.009C177.69 93.8064 175.664 85.2976 181.305 82.4501L188.619 78.7587L193.666 43.9839C194.678 37.0128 199.281 31.3436 205.435 28.7402C205.268 28.1396 205.179 27.5066 205.179 26.8528C205.179 22.9759 208.322 19.8331 212.198 19.8331C216.075 19.8331 219.218 22.9759 219.218 26.8528ZM222.887 96.8051C222.887 102.5 217.981 107.117 211.93 107.117C205.879 107.117 200.973 102.5 200.973 96.8051H222.887Z" fill="white"/>
<path d="M219.099 28.1462L217.133 27.7799L216.811 29.508L218.484 30.049L219.099 28.1462ZM232.386 43.4899L234.358 43.1522V43.1522L232.386 43.4899ZM238.428 78.7587L236.457 79.0964L236.635 80.1393L237.598 80.5784L238.428 78.7587ZM246.297 82.3473L245.467 84.167L246.297 82.3473ZM181.305 82.4501L182.207 84.2356H182.207L181.305 82.4501ZM188.619 78.7587L189.52 80.5441L190.448 80.0754L190.598 79.046L188.619 78.7587ZM193.666 43.9839L195.645 44.2712L193.666 43.9839ZM205.435 28.7402L206.215 30.5822L207.834 29.8973L207.362 28.2036L205.435 28.7402ZM222.887 96.8051H224.887V94.8051H222.887V96.8051ZM200.973 96.8051V94.8051H198.973V96.8051H200.973ZM221.065 28.5124C221.166 27.973 221.218 27.4181 221.218 26.8528H217.218C217.218 27.1712 217.189 27.4809 217.133 27.7799L221.065 28.5124ZM234.358 43.1522C232.971 35.0555 227.188 28.661 219.715 26.2433L218.484 30.049C224.576 32.02 229.285 37.2331 230.415 43.8276L234.358 43.1522ZM240.399 78.421L234.358 43.1522L230.415 43.8276L236.457 79.0964L240.399 78.421ZM247.127 80.5276L239.258 76.939L237.598 80.5784L245.467 84.167L247.127 80.5276ZM243.807 95.8064C252.405 95.8064 254.95 84.0953 247.127 80.5276L245.467 84.167C249.378 85.9509 248.106 91.8064 243.807 91.8064V95.8064ZM184.009 95.8064H243.807V91.8064H184.009V95.8064ZM180.404 80.6647C172.883 84.4613 175.584 95.8064 184.009 95.8064V91.8064C179.796 91.8064 178.446 86.1339 182.207 84.2356L180.404 80.6647ZM187.717 76.9733L180.404 80.6647L182.207 84.2356L189.52 80.5441L187.717 76.9733ZM191.687 43.6966L186.639 78.4714L190.598 79.046L195.645 44.2712L191.687 43.6966ZM204.656 26.8982C197.876 29.766 192.802 36.0125 191.687 43.6966L195.645 44.2712C196.554 38.0131 200.685 32.9211 206.215 30.5822L204.656 26.8982ZM203.179 26.8528C203.179 27.6897 203.293 28.5032 203.509 29.2767L207.362 28.2036C207.243 27.7761 207.179 27.3236 207.179 26.8528H203.179ZM212.198 17.8331C207.217 17.8331 203.179 21.8714 203.179 26.8528H207.179C207.179 24.0805 209.426 21.8331 212.198 21.8331V17.8331ZM221.218 26.8528C221.218 21.8714 217.18 17.8331 212.198 17.8331V21.8331C214.971 21.8331 217.218 24.0805 217.218 26.8528H221.218ZM211.93 109.117C218.97 109.117 224.887 103.717 224.887 96.8051H220.887C220.887 101.283 216.993 105.117 211.93 105.117V109.117ZM198.973 96.8051C198.973 103.717 204.89 109.117 211.93 109.117V105.117C206.867 105.117 202.973 101.283 202.973 96.8051H198.973ZM222.887 94.8051H200.973V98.8051H222.887V94.8051Z" fill="#B6A68D" mask="url(#path-69-inside-1_2_131)"/>
<path d="M238.076 44.9573C239.948 35.3824 233.704 26.1026 224.129 24.2303" stroke="#B6A68D" stroke-width="2" stroke-linecap="round"/>
<path d="M245.849 39.727C247.721 30.152 241.477 20.8722 231.902 19" stroke="#B6A68D" stroke-width="2" stroke-linecap="round"/>
<path d="M157.887 93.246C158.882 85.2687 150.031 59.85 132.902 47.0684C115.772 34.2868 101.623 50.7007 103.671 55.135C105.719 59.5693 127.46 53.495 121.011 33.8626C117.765 23.9811 106.563 11.541 98.8606 10.3562" stroke="#B6A68D" stroke-linecap="square" stroke-linejoin="round"/>
<defs>
<linearGradient id="paint0_linear_2_131" x1="148.5" y1="21" x2="148.5" y2="318" gradientUnits="userSpaceOnUse">
<stop stop-color="white"/>
<stop offset="1" stop-color="white" stop-opacity="0"/>
</linearGradient>
<linearGradient id="paint1_linear_2_131" x1="163.958" y1="291.176" x2="285.534" y2="301.135" gradientUnits="userSpaceOnUse">
<stop stop-color="#075983"/>
<stop offset="1" stop-color="#1292B9"/>
</linearGradient>
<linearGradient id="paint2_linear_2_131" x1="45.4781" y1="203.465" x2="59.7672" y2="207.252" gradientUnits="userSpaceOnUse">
<stop stop-color="#075983"/>
<stop offset="1" stop-color="#1292B9"/>
</linearGradient>
<linearGradient id="paint3_linear_2_131" x1="151.734" y1="189.915" x2="119.886" y2="157.406" gradientUnits="userSpaceOnUse">
<stop stop-color="#B3826E"/>
<stop offset="1" stop-color="#2D181B"/>
</linearGradient>
<linearGradient id="paint4_linear_2_131" x1="109.9" y1="182.01" x2="128.677" y2="207.629" gradientUnits="userSpaceOnUse">
<stop stop-color="#F0C26B"/>
<stop offset="1" stop-color="#653623"/>
</linearGradient>
<linearGradient id="paint5_linear_2_131" x1="229.104" y1="328.203" x2="211.025" y2="316.372" gradientUnits="userSpaceOnUse">
<stop stop-color="#B3826E"/>
<stop offset="1" stop-color="#2D181B"/>
</linearGradient>
<linearGradient id="paint6_linear_2_131" x1="125.674" y1="157.305" x2="116.473" y2="142.617" gradientUnits="userSpaceOnUse">
<stop stop-color="#B3826E"/>
<stop offset="1" stop-color="#2D181B"/>
</linearGradient>
<linearGradient id="paint7_linear_2_131" x1="130.926" y1="219.307" x2="51.9056" y2="219.307" gradientUnits="userSpaceOnUse">
<stop stop-color="#F0C26B"/>
<stop offset="1" stop-color="#653623"/>
</linearGradient>
<linearGradient id="paint8_linear_2_131" x1="110.018" y1="180.188" x2="88.9992" y2="158.958" gradientUnits="userSpaceOnUse">
<stop stop-color="#B3826E"/>
<stop offset="1" stop-color="#2D181B"/>
</linearGradient>
<linearGradient id="paint9_linear_2_131" x1="106.486" y1="149.166" x2="53.5191" y2="144.117" gradientUnits="userSpaceOnUse">
<stop stop-color="#B3826E"/>
<stop offset="1" stop-color="#2D181B"/>
</linearGradient>
<linearGradient id="paint10_linear_2_131" x1="88.8434" y1="158.115" x2="83.7429" y2="150.352" gradientUnits="userSpaceOnUse">
<stop stop-color="#B3826E"/>
<stop offset="1" stop-color="#2D181B"/>
</linearGradient>
<linearGradient id="paint11_linear_2_131" x1="265.003" y1="330.781" x2="247.676" y2="310.284" gradientUnits="userSpaceOnUse">
<stop stop-color="#B3826E"/>
<stop offset="1" stop-color="#2D181B"/>
</linearGradient>
<linearGradient id="paint12_linear_2_131" x1="164.118" y1="255.026" x2="164.118" y2="255.883" gradientUnits="userSpaceOnUse">
<stop stop-color="#E9EEF4"/>
<stop offset="1" stop-color="#CFD7E5"/>
</linearGradient>
<linearGradient id="paint13_linear_2_131" x1="117.622" y1="241.798" x2="74.7588" y2="203.072" gradientUnits="userSpaceOnUse">
<stop stop-color="#B3826E"/>
<stop offset="1" stop-color="#2D181B"/>
</linearGradient>
<linearGradient id="paint14_linear_2_131" x1="72.5483" y1="181.455" x2="100.046" y2="192.326" gradientUnits="userSpaceOnUse">
<stop stop-color="#F0C26B"/>
<stop offset="1" stop-color="#653623"/>
</linearGradient>
<linearGradient id="paint15_linear_2_131" x1="126.205" y1="257.954" x2="131.736" y2="204.468" gradientUnits="userSpaceOnUse">
<stop stop-color="#B3826E"/>
<stop offset="1" stop-color="#2D181B"/>
</linearGradient>
<linearGradient id="paint16_linear_2_131" x1="82.0193" y1="291.176" x2="203.594" y2="301.135" gradientUnits="userSpaceOnUse">
<stop stop-color="#075983"/>
<stop offset="1" stop-color="#1292B9"/>
</linearGradient>
</defs>
</svg>
