<svg width="298" height="321" viewBox="0 0 298 321" fill="none" xmlns="http://www.w3.org/2000/svg">
<circle cx="149.5" cy="148.5" r="148.5" fill="url(#paint0_linear_3104_14)"/>
<path fill-rule="evenodd" clip-rule="evenodd" d="M151.76 320.666C224.527 320.666 283.519 316.327 283.519 310.978C283.519 305.628 224.53 301.29 151.76 301.29C78.9888 301.29 20 305.627 20 310.978C20 316.328 78.9888 320.666 151.76 320.666Z" fill="#4B5D61" fill-opacity="0.1"/>
<path d="M268.878 294.479C267.931 297.674 263.557 299.8 262.968 303.703C262.771 305.322 262.111 306.849 261.066 308.101H247.451C247.589 307.351 248.185 306.545 249.954 306.158C253.737 305.33 255.162 300.746 254.929 296.489C254.846 294.63 254.858 292.768 254.964 290.911C255.083 288.473 255.283 286.559 255.283 286.559L263.322 284.672L264.166 285.758L264.975 286.802C264.975 286.802 269.823 291.292 268.878 294.479Z" fill="#30181C" stroke="#232021" stroke-width="0.896102" stroke-linecap="round" stroke-linejoin="round"/>
<path d="M205.475 308.104H177.927C178.837 307.128 180.071 306.514 181.4 306.376C185.641 305.689 192.979 303.23 194.617 297.806C194.67 297.629 194.718 297.452 194.758 297.276C196.057 291.484 205.516 299.051 205.516 299.051C205.516 299.051 205.544 299.283 205.588 299.675C205.754 301.306 206.118 305.73 205.475 308.105" fill="#30181C"/>
<path d="M205.475 308.104H177.927C178.837 307.128 180.071 306.514 181.4 306.376C185.641 305.689 192.979 303.23 194.617 297.806C194.67 297.629 194.718 297.452 194.758 297.276C196.057 291.484 205.516 299.051 205.516 299.051C205.516 299.051 205.544 299.283 205.588 299.675C205.754 301.306 206.118 305.73 205.475 308.105" stroke="#232021" stroke-width="0.896102" stroke-linecap="round" stroke-linejoin="round"/>
<path d="M182.529 154.642C182.529 154.642 183.963 172.561 185.653 194.102C187.951 223.362 190.705 259.308 190.977 266.112C191.45 277.936 193.342 296.847 193.342 296.847C193.342 296.847 197.832 301.34 206.82 299.448C206.82 299.448 214.826 272.449 217.116 243.885C217.151 243.414 217.185 242.944 217.223 242.471C219.347 213.391 222.654 152.16 222.654 152.16L182.529 154.642Z" fill="url(#paint1_linear_3104_14)"/>
<path d="M189.083 156.769C189.083 156.769 214.971 221.671 231.994 252.165C249.016 282.66 254.337 291.176 254.337 291.176C254.337 291.176 264.091 287.274 264.975 284.613C264.975 284.613 258.465 225.735 247.068 211.382C240.624 203.272 233.057 178.933 232.703 170.424C232.349 161.916 230.4 145.066 230.4 145.066L189.083 156.769Z" fill="url(#paint2_linear_3104_14)"/>
<path d="M202.363 56.5935C201.709 53.0183 201.311 49.4009 201.173 45.769L214.309 35.183C213.823 49.7388 223.15 56.742 223.15 56.742C223.15 56.742 205.641 65.354 195.527 62.1626C197.446 59.9045 199.763 58.0178 202.364 56.5962" fill="url(#paint3_linear_3104_14)"/>
<path d="M216.361 37.8719C217.929 27.4388 221.142 20.7715 210.538 18.5573C199.935 16.3431 196.898 18.4848 195.527 21.8397C194.667 24.5677 194.396 27.447 194.731 30.2874C192.04 33.7537 196.774 47.2642 199.033 47.9905C201.293 48.7168 214.793 48.3041 216.361 37.8719Z" fill="url(#paint4_linear_3104_14)"/>
<path d="M212.615 31.0092C212.615 31.0092 209.02 38.5937 207.43 39.9482C205.839 41.3027 202.393 36.8319 202.393 36.8319H196.945C196.034 38.3891 195.64 40.1951 195.821 41.9901C196.174 44.8537 198.442 49.147 198.442 49.147C200.677 50.6764 203.41 51.2992 206.088 50.8894C210.36 50.1118 212.486 47.8676 215.651 44.1849C217.047 42.5609 217.854 38.6556 217.38 37.3408C216.78 35.6744 214.906 35.5649 214.906 34.3853C212.615 36.8319 212.615 31.0092 212.615 31.0092Z" fill="#190C1A"/>
<path d="M202.845 39.9483C201.447 40.8772 199.628 40.8772 198.23 39.9483" stroke="#79554B" stroke-width="1.23699" stroke-linecap="round"/>
<path d="M195.891 23.3671C195.891 23.3671 191.844 23.8973 193.478 19.5175C191.446 17.8511 191.074 14.2567 194.389 14.8443C193.948 12.7414 195.803 11.0609 197.604 12.9641C197.665 9.22839 200.974 9.42454 202.415 10.939C202.415 8.63464 206.037 6.58919 209.337 9.7064C211.023 7.39147 214.836 7.43741 215.127 10.4848C218.397 8.11952 222.118 10.499 221.691 13.9148C221.691 13.9148 226.327 15.1421 224.005 20.3542C225.525 20.9179 225.583 25.4568 223.201 25.4568C225.033 26.7176 224.54 30.4268 222.451 30.0372C224.005 31.8732 223.543 33.6403 221.691 34.3852C223.201 35.9835 221.602 39.1803 219.893 38.3038C220.211 40.4393 214.749 40.26 216.033 36.9652C215.119 35.707 214.391 35.0796 214.612 34.3852C216.821 33.4044 217.12 28.6579 215.127 28.6579C213.135 28.6579 212.841 32.3998 212.028 31.2202C211.215 30.0407 209.528 25.857 211.311 22.5569C210.405 23.4371 209.088 23.7483 207.883 23.3671C206.835 25.1882 203.62 25.0821 202.645 24.1235C199.804 24.2905 197.134 24.0652 195.891 23.3671Z" fill="#190C1A"/>
<path d="M223.571 25.6167C225.195 25.6167 226.511 24.3003 226.512 22.6762C226.512 21.0517 225.195 19.7348 223.571 19.7348" stroke="#242021" stroke-width="0.618493" stroke-linecap="round"/>
<path d="M192.879 19.6617C191.862 20.032 191.337 21.1571 191.708 22.1747C192.078 23.1922 193.203 23.7168 194.221 23.3465" stroke="#242021" stroke-width="0.618493" stroke-linecap="round"/>
<path d="M193.859 13.8815C189.054 14.6076 191.792 20.1429 192.81 19.7724" stroke="#242021" stroke-width="0.618493" stroke-linecap="round"/>
<path d="M139.392 67.034L135.835 64.8313C133.103 60.9765 127.853 59.8934 123.818 62.352C123.818 62.352 120.82 64.265 122.831 65.8677C124.841 67.4705 124.305 66.5649 127.094 68.8851C129.882 71.2053 133.493 72.035 135.824 70.7556L138.811 70.4729L139.388 67.034" fill="#A16D3C"/>
<path d="M135.17 67.7213C136.087 64.8541 136.522 64.6014 136.522 64.6014C136.522 64.6014 165.291 68.0005 168.004 68.2011C170.718 68.4016 208.383 60.6413 208.383 60.6413L226.168 82.2382C226.168 82.2382 173.73 84.2156 166.869 83.5724C155.528 82.5103 134.959 71.9509 134.959 71.9509C134.666 70.546 134.738 69.0892 135.17 67.7204" fill="#B6A68D"/>
<path d="M158.523 33.1603L95.1185 23.0904C92.4241 22.6665 89.8947 24.503 89.4637 27.1963L86.6575 44.8675C86.6054 45.9077 86.6317 46.9503 86.7362 47.9865L89.021 48.3267C89.1512 48.3553 89.2832 48.3751 89.416 48.3859C89.849 48.4193 90.2842 48.359 90.6919 48.2092C92.8683 47.4219 95.2153 47.2294 97.4909 47.6516C104.188 48.9019 108.81 55.0765 108.122 61.8549C107.752 65.4237 105.93 68.6832 103.085 70.8688C100.239 73.0543 96.6202 73.9736 93.0766 73.411C90.4137 72.9932 87.9464 71.7582 86.0161 69.8767C85.6822 69.5469 85.2459 69.3409 84.7791 69.2927L82.3864 68.934L79.4088 90.4929C79.206 91.7699 79.519 93.0752 80.2787 94.1214C81.0385 95.1677 82.1828 95.8693 83.4599 96.0717L101.573 98.9486C102.355 99.0709 103.018 99.5902 103.325 100.321C103.631 101.051 103.536 101.888 103.075 102.531C101.899 104.178 101.122 106.077 100.807 108.076C100.181 112.044 101.412 116.08 104.147 119.023C106.881 121.966 110.816 123.49 114.819 123.156C119.245 122.84 124.242 119.129 125.846 114.992C126.973 112.151 127.077 109.005 126.139 106.096C125.903 105.363 126.064 104.561 126.565 103.977C127.067 103.393 127.836 103.112 128.596 103.236L146.82 106.13C149.478 106.552 151.975 104.74 152.397 102.083L162.477 38.6075C162.675 37.3606 162.37 36.086 161.628 35.0643C160.886 34.0425 159.769 33.3573 158.522 33.1594" fill="#C1993A"/>
<path d="M123.499 114.639C124.627 111.798 124.731 108.653 123.794 105.743C123.558 105.01 123.719 104.207 124.22 103.624C124.722 103.04 125.491 102.759 126.251 102.882L144.475 105.777C145.751 105.98 147.056 105.667 148.101 104.908C149.147 104.149 149.848 103.006 150.05 101.729L160.132 38.2543C160.544 35.6579 158.773 33.2188 156.177 32.8063L92.7726 22.7372C90.0781 22.3133 87.5488 24.1498 87.1178 26.8431L84.3116 44.5144C84.143 45.5766 84.5474 46.649 85.3756 47.3353C86.2037 48.0216 87.3326 48.2199 88.345 47.8569C90.5214 47.0696 92.8685 46.8772 95.144 47.2994C101.842 48.5492 106.464 54.7231 105.778 61.5017C105.407 65.0708 103.585 68.3305 100.74 70.516C97.8938 72.7016 94.2745 73.6208 90.7307 73.0578C88.0679 72.6394 85.6008 71.4044 83.6701 69.5236C83.113 68.9782 82.298 68.7894 81.5578 69.0341C80.8175 69.2789 80.2758 69.9163 80.1535 70.6864L77.0611 90.138C76.6388 92.7964 78.4512 95.2939 81.1096 95.7168L99.2226 98.5937C100.005 98.7164 100.667 99.2358 100.973 99.9659C101.28 100.696 101.185 101.533 100.725 102.177C99.5467 103.823 98.77 105.721 98.4565 107.721C97.8292 111.691 99.0608 115.728 101.797 118.672C104.533 121.616 108.47 123.139 112.475 122.803C116.901 122.487 121.898 118.776 123.5 114.639" fill="#FFE3A3"/>
<path d="M232.372 148.383C232.422 149.498 230.126 150.72 229.128 151.169C221.618 154.536 214.625 156.876 206.722 157.635C197.348 158.598 186.27 156.487 182.472 156.54C182.081 156.537 181.705 156.394 181.411 156.136C181.157 155.932 180.954 144.482 181.157 130.046C181.157 129.488 181.157 128.879 181.207 128.321V128.121C181.223 126.619 181.245 125.089 181.28 123.547C181.374 119.328 181.531 114.996 181.716 110.692C181.989 104.346 182.366 98.1088 182.89 92.5839C183.266 87.7695 183.975 82.9869 185.01 78.2702C187.037 70.114 191.699 64.742 195.953 60.7907L199.448 57.7035C203.121 58.5112 206.96 58.046 210.334 56.3844C214.337 54.4087 218.695 52.2802 219.401 52.7874C224.803 56.8244 228.439 65.9887 230.302 77.6358C231.341 84.4351 231.83 91.3069 231.767 98.1848C231.758 100.982 231.67 103.822 231.51 106.688C230.9 118.844 231.085 131.028 232.063 143.16C232.216 145.389 232.338 147.161 232.374 148.382" fill="#514846"/>
<path fill-rule="evenodd" clip-rule="evenodd" d="M199.105 57.5756C202.079 58.567 208.03 59.0633 218.443 52.3695C219.187 51.6257 217.699 50.1381 216.956 48.6506C213.237 52.3697 207.564 53.6083 202.824 53.8567C200.963 53.9542 200.593 55.3443 199.105 57.5756Z" fill="#30181C"/>
<path d="M181.904 122.841C181.993 118.622 181.397 105.611 181.904 100.082C182.429 99.8019 196.548 86.3744 197 86.2216C206.981 82.8181 219.79 77.3232 219.79 77.3232C219.79 77.3232 211.323 114.42 181.904 122.841Z" fill="#242021" fill-opacity="0.22"/>
<path d="M135.168 90.6871C126.838 90.6871 122.374 101.29 124.638 103.082C126.903 104.874 133.218 105.299 134.782 103.082C136.345 100.865 138.479 96.8279 138.479 96.8279L139.515 91.4055L135.168 90.6871Z" fill="url(#paint5_linear_3104_14)"/>
<path d="M136.193 93.6141C136.334 90.4174 138.037 90.0798 138.037 90.0798C138.037 90.0798 170.95 87.9027 173.789 87.3523C176.628 86.8018 202.843 65.0865 202.843 65.0865C202.843 65.0865 212.979 55.9673 220.082 59.0412C226.256 61.7131 228.188 66.9835 228.498 71.8316C228.847 77.6142 225.619 83.0204 220.363 85.457C208.593 90.9563 185.047 101.75 179.686 102.681C167.752 104.754 137.076 98.1105 137.076 98.1105C136.44 96.6994 136.138 95.1609 136.193 93.6141Z" fill="#B6A68D"/>
<path d="M39.9797 272.89C39.8265 272.742 39.6732 272.589 39.5295 272.426C37.8795 270.616 36.9188 268.284 36.8156 265.837L36.4895 258.378C34.7076 246.189 23.9443 234.549 23.8903 234.494C2.04755 215.553 -5.73335 185.038 4.373 157.951C4.94756 156.412 5.57202 154.902 6.24638 153.423V153.391C6.2737 150.246 11.8731 141.281 13.2724 141.293L19.3844 141.346C19.8134 141.35 20.2138 141.131 20.4421 140.768C20.6704 140.405 20.6941 139.949 20.5046 139.564C19.7457 138.034 19.5424 136.288 19.9297 134.625C20.6741 132 22.7226 129.947 25.3455 129.198C28.1162 128.54 31.0164 129.552 32.777 131.79C34.5375 134.029 34.8378 137.086 33.5464 139.624C33.3444 140.017 33.361 140.488 33.5903 140.866C33.8196 141.245 34.2288 141.478 34.6714 141.481L44.918 141.57C45.6401 141.576 46.3302 141.869 46.8363 142.384C47.3425 142.899 47.6233 143.594 47.617 144.317L47.3396 176.161C47.5879 177.932 48.1783 179.725 49.5486 179.725H87.0821C89.4307 179.725 90.2521 178.095 90.5366 176.845V166.655C90.5371 166.224 90.3138 165.824 89.9469 165.598C89.5801 165.372 89.1222 165.353 88.7375 165.547C87.2102 166.321 85.4608 166.54 83.7897 166.166C81.1531 165.442 79.0783 163.406 78.3044 160.784C77.6193 158.011 78.6078 155.093 80.8369 153.307C83.0661 151.522 86.1296 151.194 88.6858 152.468C89.0824 152.666 89.5534 152.645 89.9304 152.412C90.3075 152.179 90.5369 151.767 90.5366 151.324V141.048C90.5366 139.539 91.7599 138.316 93.2689 138.316H104.301C104.737 138.317 105.135 138.561 105.335 138.948C105.535 139.335 105.502 139.801 105.252 140.157C103.17 143.114 103.56 147.148 106.169 149.651C108.779 152.155 112.825 152.377 115.694 150.175C118.562 147.973 119.392 144.006 117.647 140.839C117.357 140.311 117.367 139.668 117.674 139.149C117.981 138.63 118.539 138.312 119.142 138.313H122.685C124.846 138.313 131.935 148.77 131.935 152.614V152.68C132.739 154.39 133.475 156.142 134.145 157.935C144.252 185.023 136.472 215.539 114.629 234.48C114.574 234.534 103.808 246.175 102.029 258.364L101.732 265.828C101.629 268.275 100.668 270.607 99.0179 272.416C98.8748 272.58 98.721 272.733 98.5683 272.881L39.9797 272.89Z" fill="#F5CD6E"/>
<path d="M72.0493 316.079H66.4785C51.7628 316.077 39.8342 304.147 39.8342 289.432L39.8342 272.86H98.6966V289.432C98.6966 304.148 86.7662 316.079 72.0493 316.079Z" fill="#514846"/>
<path d="M99.1367 183.176L89.4669 172.668L81.532 183.783L69.3652 158.665L57.3384 184.406L50.6189 172.668L41.0328 183.783" stroke="#C8E8FF" stroke-width="3" stroke-linecap="round" stroke-linejoin="round"/>
<path d="M79.7525 277.463L80.0278 277.532C81.4706 277.883 82.9314 276.791 83.2924 275.089L102.746 183.853C103.101 182.149 102.222 180.484 100.781 180.126L100.51 180.058C99.0672 179.707 97.6063 180.799 97.2454 182.501L77.7919 273.737C77.4374 275.439 78.3132 277.104 79.7525 277.463Z" fill="#FFFEFD"/>
<path d="M61.259 276.882C59.7364 277.261 58.1909 276.113 57.806 274.318L38.4058 183.385C38.025 181.589 38.9464 179.829 40.4667 179.446C41.9871 179.064 43.5341 180.215 43.9197 182.01L63.3153 272.94C63.699 274.734 62.7796 276.497 61.259 276.882Z" fill="#FFFEFD"/>
<path d="M40.5724 279.354H97.9155C99.7145 279.354 101.173 277.895 101.173 276.096C101.173 274.297 99.7145 272.839 97.9155 272.839H40.5724C38.7735 272.839 37.3151 274.297 37.3151 276.096C37.3151 277.895 38.7735 279.354 40.5724 279.354Z" fill="#B6A68E"/>
<path d="M40.5724 292.436H97.9155C99.7145 292.436 101.173 290.978 101.173 289.179C101.173 287.38 99.7145 285.922 97.9155 285.922H40.5724C38.7735 285.922 37.3151 287.38 37.3151 289.179C37.3151 290.978 38.7735 292.436 40.5724 292.436Z" fill="#B6A68E"/>
<path d="M43.9634 307.058H94.5245C96.3235 307.058 97.7819 305.599 97.7819 303.8C97.7819 302.001 96.3235 300.543 94.5245 300.543H43.9634C42.1645 300.543 40.7061 302.001 40.7061 303.8C40.7061 305.599 42.1645 307.058 43.9634 307.058Z" fill="#B6A68E"/>
<defs>
<linearGradient id="paint0_linear_3104_14" x1="149.5" y1="0" x2="149.5" y2="297" gradientUnits="userSpaceOnUse">
<stop stop-color="white"/>
<stop offset="1" stop-color="white" stop-opacity="0"/>
</linearGradient>
<linearGradient id="paint1_linear_3104_14" x1="188.247" y1="226.519" x2="231.258" y2="226.519" gradientUnits="userSpaceOnUse">
<stop stop-color="#F0C26B"/>
<stop offset="1" stop-color="#653623"/>
</linearGradient>
<linearGradient id="paint2_linear_3104_14" x1="199.897" y1="218.599" x2="281.248" y2="218.599" gradientUnits="userSpaceOnUse">
<stop stop-color="#F0C26B"/>
<stop offset="1" stop-color="#653623"/>
</linearGradient>
<linearGradient id="paint3_linear_3104_14" x1="191.391" y1="57.4884" x2="210.731" y2="34.1722" gradientUnits="userSpaceOnUse">
<stop stop-color="#B3826E"/>
<stop offset="1" stop-color="#2D181B"/>
</linearGradient>
<linearGradient id="paint4_linear_3104_14" x1="193.899" y1="32.2879" x2="239.593" y2="27.906" gradientUnits="userSpaceOnUse">
<stop stop-color="#B3826E"/>
<stop offset="1" stop-color="#2D181B"/>
</linearGradient>
<linearGradient id="paint5_linear_3104_14" x1="121.737" y1="101.886" x2="131.201" y2="89.1659" gradientUnits="userSpaceOnUse">
<stop stop-color="#B3826E"/>
<stop offset="1" stop-color="#2D181B"/>
</linearGradient>
</defs>
</svg>
