<svg width="318" height="395" viewBox="0 0 318 395" fill="none" xmlns="http://www.w3.org/2000/svg">
<circle cx="148.5" cy="205.5" r="148.5" fill="url(#paint0_linear_3104_13)"/>
<circle cx="162" cy="70" r="36" fill="white" stroke="#B6A68D" stroke-width="2"/>
<path d="M127 70H132" stroke="#B6A68D" stroke-width="2" stroke-linecap="round" stroke-linejoin="round"/>
<path d="M192 70H197" stroke="#B6A68D" stroke-width="2" stroke-linecap="round" stroke-linejoin="round"/>
<path d="M161.543 105.5L161.457 100.5" stroke="#B6A68D" stroke-width="2" stroke-linecap="round" stroke-linejoin="round"/>
<path d="M161.543 39.499L161.457 34.4998" stroke="#B6A68D" stroke-width="2" stroke-linecap="round" stroke-linejoin="round"/>
<path d="M152 43.5L162 70L179 57" stroke="#B6A68D" stroke-width="3" stroke-linecap="round" stroke-linejoin="round"/>
<circle cx="162" cy="70" r="3" fill="#514846"/>
<path d="M177.468 159L177 182.501" stroke="#B6A68D" stroke-width="4" stroke-linecap="square" stroke-linejoin="round"/>
<path d="M208.387 150L208.387 182" stroke="#B6A68D" stroke-width="4" stroke-linecap="square" stroke-linejoin="round"/>
<path d="M187.775 150L187.775 182" stroke="#B6A68D" stroke-width="4" stroke-linecap="square" stroke-linejoin="round"/>
<path d="M218.694 144V182.5" stroke="#B6A68D" stroke-width="4" stroke-linecap="square" stroke-linejoin="round"/>
<path d="M198.081 166V182" stroke="#B6A68D" stroke-width="4" stroke-linecap="square" stroke-linejoin="round"/>
<path d="M229 133L229 182" stroke="#B6A68D" stroke-width="4" stroke-linecap="square" stroke-linejoin="round"/>
<path fill-rule="evenodd" clip-rule="evenodd" d="M156.957 367C90.4071 367 36.4571 373.269 36.4571 381.001C36.4571 388.732 90.4071 395 156.957 395C223.508 395 277.457 388.732 277.457 381.001C277.457 373.269 223.508 367 156.957 367Z" fill="#4B5D61" fill-opacity="0.1"/>
<path fill-rule="evenodd" clip-rule="evenodd" d="M204.003 382.683H197.67L211.317 234.683H217.654L204.003 382.683Z" fill="#B6A68E"/>
<path fill-rule="evenodd" clip-rule="evenodd" d="M250.694 382.683H257.028L243.38 234.683H237.047L250.694 382.683Z" fill="#B6A68E"/>
<path fill-rule="evenodd" clip-rule="evenodd" d="M169.167 223.433L132.68 214.033C126.415 202.414 119.439 191.193 111.792 180.433C107.73 184.454 105.472 190.63 101.382 194.61L125.159 224.622C126.255 225.835 171.945 230.45 171.945 230.45L169.167 223.433Z" fill="url(#paint1_linear_3104_13)"/>
<path d="M117.136 138.011C117.553 131.063 116.236 124.12 113.306 117.806C110.64 112.259 104.047 109.126 98.0323 109.106C78.9387 109.081 76.5123 134.306 64.3523 144.042C60.6395 147.016 56.4867 149.438 52.9731 152.644C39.9955 164.484 45.8419 186.404 57.7587 196.786C66.0283 203.986 79.0211 208.084 89.2147 202.453C94.5347 199.513 98.5747 194.613 101.455 189.27C105.539 181.67 108.175 172.904 111.076 164.806C114.163 156.189 116.753 147.214 117.136 138.011Z" fill="#190C1A"/>
<path fill-rule="evenodd" clip-rule="evenodd" d="M106.345 201.901C106.345 201.901 92.0171 187.209 88.3323 180.828C84.6475 174.447 90.8523 178.588 97.1723 176.922C99.5723 176.286 98.9643 162.235 103.492 166.802C110.928 174.295 120.278 187.382 120.278 187.382L106.345 201.901Z" fill="url(#paint2_linear_3104_13)"/>
<path d="M109.74 372.714H104.422L104.422 294.95H109.74L109.74 372.714Z" fill="#B6A68E"/>
<path fill-rule="evenodd" clip-rule="evenodd" d="M170.785 352.824C170.785 352.824 171.95 364.962 171.185 368.918C171.033 369.578 170.835 370.226 170.595 370.858C169.805 373.079 171.964 379.855 171.964 379.855L200.9 379.956C202.476 379.956 201.424 379.006 200.14 378.13C198.04 376.697 196.349 375.754 189.665 372.766C189.232 372.57 187.641 371.646 187.067 371.307C185.521 370.358 184.114 369.2 182.884 367.867C180.778 365.686 180.459 354.987 180.459 354.987L170.785 352.824Z" fill="url(#paint3_linear_3104_13)"/>
<path fill-rule="evenodd" clip-rule="evenodd" d="M187.075 371.306C179.448 373.266 173.775 372.063 170.595 370.883C169.808 373.099 168.453 381.423 169.338 381.423C176.596 381.423 182.608 381.903 203.397 381.591C204.142 381.591 204.05 379.135 203.565 378.595C202.226 377.105 187.649 371.622 187.075 371.306Z" fill="#F7CB72"/>
<path fill-rule="evenodd" clip-rule="evenodd" d="M193.925 332.703C193.925 332.703 200.253 343.285 201.278 347.188C201.425 347.847 201.527 348.515 201.584 349.188C201.83 351.518 206.736 356.826 206.736 356.826L233.106 345.44C234.546 344.818 233.168 344.368 231.622 344.08C229.102 343.61 227.142 343.419 219.764 343.355C219.284 343.355 217.428 343.128 216.764 343.075C214.942 342.822 213.162 342.327 211.471 341.604C208.603 340.456 203.667 330.852 203.667 330.852L193.925 332.703Z" fill="url(#paint4_linear_3104_13)"/>
<path fill-rule="evenodd" clip-rule="evenodd" d="M216.506 343.063C210.421 347.877 204.746 349.03 201.332 349.223C201.579 351.553 203.483 358.956 204.287 358.607C210.889 355.727 217.047 354.485 235.826 345.951C236.498 345.645 235.352 343.455 234.678 343.15C232.81 342.318 217.172 343.122 216.506 343.063Z" fill="#F7CB72"/>
<path d="M112.632 242.338V248.574L173.976 260.894L189.2 304.613L180.716 299.073L182.676 366.396L169.774 366.483C169.774 366.483 147.424 310.022 154.749 281.606L86.8547 282.6C86.8547 282.6 56.0851 271.24 71.9643 236.993L112.632 242.338Z" fill="#28141A" stroke="#232021" stroke-width="0.6024" stroke-linecap="round" stroke-linejoin="round"/>
<path d="M107.251 248.574C107.251 248.574 170.884 248.982 175.406 252.309C179.928 255.635 213.839 338.302 213.839 338.302L199.046 343.582C199.046 343.582 169.621 296.681 168.064 293.334C166.507 289.988 155.108 265.534 150.757 263.038C146.406 260.543 107.251 248.574 107.251 248.574Z" fill="#30181C" stroke="#232021" stroke-width="0.6024" stroke-linecap="round" stroke-linejoin="round"/>
<path fill-rule="evenodd" clip-rule="evenodd" d="M113.488 376.181C113.488 374.266 111.937 372.713 110.022 372.711H103.548C101.633 372.713 100.082 374.266 100.082 376.181L78.9251 376.182C76.493 376.18 74.5195 378.15 74.5156 380.582C74.5169 381.008 74.8625 381.352 75.2884 381.352H135.396C135.821 381.352 136.167 381.008 136.168 380.582C136.164 378.15 134.192 376.182 131.761 376.182H113.488V376.181Z" fill="#B6A68E"/>
<path fill-rule="evenodd" clip-rule="evenodd" d="M89.7187 160.384C89.7187 160.384 76.9187 157.864 71.0787 162.736C65.2387 167.608 72.3299 210.997 72.3243 218.176C72.3187 225.355 68.3148 245.686 68.3148 245.686C68.3148 245.686 107.103 252.49 113.263 241.702C113.263 241.702 115.016 200.57 114.756 195.398C114.496 190.226 108.744 169.078 107.156 166.806C105.568 164.535 89.7187 160.384 89.7187 160.384Z" fill="url(#paint5_linear_3104_13)"/>
<path fill-rule="evenodd" clip-rule="evenodd" d="M89.6379 140.587C89.6379 140.587 89.5707 140.97 89.4507 141.621C88.8715 144.746 86.6339 155.109 85.1243 157.956C83.2987 161.399 91.3707 172.378 99.1411 171.04C101.454 170.64 97.1811 160.96 97.3907 159.92C97.7827 157.96 98.3171 155.274 98.8611 152.528C99.1691 150.977 99.4795 149.403 99.7715 147.927C100.611 143.731 101.28 140.298 101.28 140.298L89.6379 140.587Z" fill="url(#paint6_linear_3104_13)"/>
<path fill-rule="evenodd" clip-rule="evenodd" d="M110.714 138.341C109.692 140.324 107.981 141.421 106.889 140.788C105.797 140.155 105.739 138.05 106.758 136.068C107.777 134.087 109.49 132.991 110.582 133.623C111.674 134.256 111.733 136.364 110.714 138.341Z" fill="url(#paint7_linear_3104_13)"/>
<path fill-rule="evenodd" clip-rule="evenodd" d="M99.0756 118.977C99.0756 118.977 93.5875 118.344 90.1459 122.785C86.7043 127.226 83.0004 140.954 91.546 148.419C100.092 155.884 108.534 147.433 109.786 138.476C111.038 129.519 111.524 118.652 99.0756 118.977Z" fill="url(#paint8_linear_3104_13)"/>
<path d="M99.6884 117.509C99.6884 117.509 92.358 130.567 87.1132 131.167C81.8684 131.767 81.1795 138.702 81.1795 138.702C81.1795 138.702 83.0532 122.714 88.2484 119.631C93.4436 116.549 99.6884 117.509 99.6884 117.509Z" fill="#190C1A"/>
<path d="M107.688 117.509C107.688 117.509 114.783 123.97 111.91 128.93C107.688 125.564 100.493 125.564 98.3547 118.945C96.2163 112.326 107.688 117.509 107.688 117.509Z" fill="#190C1A"/>
<path fill-rule="evenodd" clip-rule="evenodd" d="M87.3251 137.326C87.3647 137.821 87.0487 138.275 86.5707 138.41C85.0843 138.722 83.5387 137.082 83.1083 134.77C82.6779 132.459 83.5411 130.322 85.0283 130.009C86.1483 129.772 87.3043 130.645 87.9883 132.083" fill="url(#paint9_linear_3104_13)"/>
<path fill-rule="evenodd" clip-rule="evenodd" d="M79.5499 277.938C79.5499 277.938 142.813 279.018 149.407 277.938C156.002 276.857 158.86 285.122 156.888 289.454C154.916 293.786 149.504 295.454 141.533 295.854C133.562 296.254 67.2131 298.119 65.3419 296.347C63.8131 294.9 43.7011 226.137 36.3819 200.987C34.9161 195.962 37.7982 190.699 42.8219 189.227C47.8221 187.758 53.0714 190.596 54.5819 195.583L79.5499 277.938Z" fill="#514846"/>
<path fill-rule="evenodd" clip-rule="evenodd" d="M229.843 184.374H176.759C175.354 184.374 174.09 185.224 173.559 186.524L157.209 226.39H127.945C127.552 226.39 127.174 226.546 126.896 226.824C126.618 227.101 126.461 227.479 126.461 227.872C126.463 228.69 127.127 229.352 127.945 229.35H211.238C213.528 229.35 215.605 228.007 216.543 225.918L233.002 189.254C233.482 188.182 233.386 186.941 232.749 185.956C232.111 184.97 231.017 184.375 229.843 184.374Z" fill="white"/>
<path d="M199.579 205.583C199.347 207.281 197.791 208.475 196.091 208.26C194.436 207.807 193.458 206.103 193.901 204.446C194.134 202.749 195.691 201.557 197.39 201.775C199.041 202.229 200.018 203.928 199.579 205.583Z" fill="#D6D6D6"/>
<path d="M276.475 235L120.439 235C119.897 235 119.457 234.408 119.457 233.678V230.322C119.457 229.592 119.897 229 120.439 229L276.475 229C277.017 229 277.457 229.592 277.457 230.322V233.678C277.457 234.408 277.017 235 276.475 235Z" fill="#514846"/>
<path fill-rule="evenodd" clip-rule="evenodd" d="M145.811 382.682H139.475L153.124 234.682H159.458L145.811 382.682Z" fill="#B6A68E"/>
<path fill-rule="evenodd" clip-rule="evenodd" d="M197.622 382.682H203.956L190.308 234.682H183.972L197.622 382.682Z" fill="#B6A68E"/>
<path fill-rule="evenodd" clip-rule="evenodd" d="M131.96 217.791C131.038 218.25 105.56 214.093 98.2795 214.093C97.4363 211.769 92.2995 195.761 91.5491 193.562C87.6595 196.362 80.8555 197.922 76.8291 200.465C79.7691 207.745 90.5891 225.391 92.6251 226.305C98.8219 229.074 129.156 227.242 133.916 223.826C134.179 225.112 143.476 224.002 145.369 222.882C151.494 226.405 157.356 224.522 159.436 223.826C161.151 223.251 151.428 219.314 145.369 216.762C142.087 215.384 132.392 217.576 131.96 217.791Z" fill="url(#paint10_linear_3104_13)"/>
<path fill-rule="evenodd" clip-rule="evenodd" d="M75.7219 202.119C75.7219 202.119 67.2851 183.415 66.0027 176.155C64.7203 168.895 70.9507 159.784 77.4827 160.371C84.0147 160.958 93.7763 193.262 93.7763 193.262L75.7219 202.119Z" fill="url(#paint11_linear_3104_13)"/>
<path d="M291.801 2.43931C284.139 4.87108 264.748 23.5376 260.299 44.4422C255.849 65.3468 276.675 71.3372 279.847 67.6232C283.019 63.9092 268.412 46.6985 253.274 60.7647C245.654 67.8446 239.037 83.2211 241.181 90.7138" stroke="#B6A68D" stroke-linecap="square" stroke-linejoin="round"/>
<defs>
<linearGradient id="paint0_linear_3104_13" x1="148.5" y1="57" x2="148.5" y2="354" gradientUnits="userSpaceOnUse">
<stop stop-color="white"/>
<stop offset="1" stop-color="white" stop-opacity="0"/>
</linearGradient>
<linearGradient id="paint1_linear_3104_13" x1="182.512" y1="220.725" x2="102.803" y2="164.541" gradientUnits="userSpaceOnUse">
<stop stop-color="#B3826E"/>
<stop offset="1" stop-color="#2D181B"/>
</linearGradient>
<linearGradient id="paint2_linear_3104_13" x1="125.056" y1="192.782" x2="87.0048" y2="192.782" gradientUnits="userSpaceOnUse">
<stop stop-color="#F0C26B"/>
<stop offset="1" stop-color="#653623"/>
</linearGradient>
<linearGradient id="paint3_linear_3104_13" x1="206.375" y1="374.681" x2="166.667" y2="351.816" gradientUnits="userSpaceOnUse">
<stop stop-color="#B3826E"/>
<stop offset="1" stop-color="#2D181B"/>
</linearGradient>
<linearGradient id="paint4_linear_3104_13" x1="239.671" y1="351.776" x2="197.246" y2="319.308" gradientUnits="userSpaceOnUse">
<stop stop-color="#B3826E"/>
<stop offset="1" stop-color="#2D181B"/>
</linearGradient>
<linearGradient id="paint5_linear_3104_13" x1="115" y1="219.5" x2="68" y2="225.5" gradientUnits="userSpaceOnUse">
<stop stop-color="#F0C26B"/>
<stop offset="1" stop-color="#653623"/>
</linearGradient>
<linearGradient id="paint6_linear_3104_13" x1="103.739" y1="165.154" x2="77.8124" y2="158.261" gradientUnits="userSpaceOnUse">
<stop stop-color="#B3826E"/>
<stop offset="1" stop-color="#2D181B"/>
</linearGradient>
<linearGradient id="paint7_linear_3104_13" x1="112.252" y1="139.505" x2="104.149" y2="136.593" gradientUnits="userSpaceOnUse">
<stop stop-color="#B3826E"/>
<stop offset="1" stop-color="#2D181B"/>
</linearGradient>
<linearGradient id="paint8_linear_3104_13" x1="114" y1="145" x2="78.2304" y2="131.693" gradientUnits="userSpaceOnUse">
<stop stop-color="#B3826E"/>
<stop offset="1" stop-color="#2D181B"/>
</linearGradient>
<linearGradient id="paint9_linear_3104_13" x1="88.7356" y1="136.8" x2="80.9691" y2="134.515" gradientUnits="userSpaceOnUse">
<stop stop-color="#B3826E"/>
<stop offset="1" stop-color="#2D181B"/>
</linearGradient>
<linearGradient id="paint10_linear_3104_13" x1="172.036" y1="221.024" x2="115.416" y2="152.31" gradientUnits="userSpaceOnUse">
<stop stop-color="#B3826E"/>
<stop offset="1" stop-color="#2D181B"/>
</linearGradient>
<linearGradient id="paint11_linear_3104_13" x1="97.8162" y1="191.54" x2="65.6445" y2="191.54" gradientUnits="userSpaceOnUse">
<stop stop-color="#F0C26B"/>
<stop offset="1" stop-color="#653623"/>
</linearGradient>
</defs>
</svg>
