<svg width="50" height="50" viewBox="0 0 50 50" fill="none" xmlns="http://www.w3.org/2000/svg">
<g id="AE">
<path fill-rule="evenodd" clip-rule="evenodd" d="M39 3H11C6.58172 3 3 6.58172 3 11V39C3 43.4183 6.58172 47 11 47H39C43.4183 47 47 43.4183 47 39V11C47 6.58172 43.4183 3 39 3ZM11 0C4.92487 0 0 4.92487 0 11V39C0 45.0751 4.92487 50 11 50H39C45.0751 50 50 45.0751 50 39V11C50 4.92487 45.0751 0 39 0H11Z" fill="#252525"/>
<path d="M20.6376 30.4444H13.0409L11.4952 35.2899C11.4754 35.373 11.429 35.4472 11.3633 35.5011C11.2975 35.555 11.2159 35.5857 11.1312 35.5883L7.25309 35.5881C7.03364 35.5881 6.95685 35.4666 7.02292 35.2236L13.6001 16.2225L13.6658 16.0229L13.6876 15.9546L13.7316 15.8119C13.7535 15.7382 13.7753 15.6601 13.7973 15.5754C13.8835 15.1335 13.9275 14.6843 13.9289 14.2339C13.9244 14.2024 13.9273 14.1703 13.9373 14.1401C13.9473 14.11 13.9641 14.0825 13.9865 14.0601C14.0088 14.0376 14.036 14.0206 14.066 14.0105C14.0959 14.0005 14.1278 13.9976 14.159 14.002H19.3879C19.5411 14.002 19.6286 14.0572 19.651 14.1677L27.1159 35.2569C27.1816 35.4778 27.116 35.5883 26.9187 35.5881H22.6435C22.5701 35.5963 22.4962 35.5773 22.4357 35.5347C22.3752 35.492 22.3321 35.4286 22.3147 35.3563L20.6376 30.4444ZM14.2249 26.3589H19.4209L19.3467 26.1126L19.2278 25.7226L19.0538 25.164L18.7196 24.1095L17.8093 21.2079C17.6457 20.6867 17.4886 20.1634 17.3382 19.6382L17.1701 19.041L16.9885 18.3865L16.8227 17.7795H16.7898C16.6253 18.5746 16.4249 19.3618 16.1892 20.1385L15.9671 20.8566L15.4329 22.5926L15.1621 23.477C15.1131 23.6367 15.0644 23.7947 15.0156 23.9507L14.8701 24.4133L14.7253 24.865L14.5813 25.3056L14.4381 25.7351C14.3668 25.9473 14.2956 26.155 14.2249 26.3589ZM39.218 28.5586H32.7397C32.819 29.2042 33.0319 29.8259 33.3645 30.3835C33.7322 30.9357 34.2523 31.3675 34.8606 31.6257C35.6851 31.985 36.5769 32.1611 37.4751 32.1418C38.1877 32.1281 38.8976 32.0496 39.5962 31.9073C40.221 31.8224 40.8333 31.6616 41.4198 31.4285C41.5293 31.3406 41.5845 31.3954 41.5845 31.594V34.741C41.5899 34.8268 41.5728 34.9124 41.5349 34.9894C41.4974 35.0496 41.4468 35.1005 41.3871 35.1385C40.7365 35.4288 40.0518 35.6343 39.3496 35.75C38.3956 35.9304 37.4261 36.0135 36.4556 35.9982C34.9474 35.9982 33.6761 35.7702 32.6416 35.3144L32.5421 35.2695C31.5476 34.8282 30.6694 34.159 29.9772 33.3152C29.3306 32.5201 28.8497 31.6019 28.5631 30.6155C28.2794 29.6419 28.1355 28.6324 28.1358 27.6177C28.1328 26.5097 28.3049 25.4083 28.6456 24.3548C28.9737 23.3272 29.4926 22.3718 30.1746 21.5393C30.8474 20.7164 31.6887 20.0497 32.6411 19.5847C33.6056 19.1102 34.7457 18.9399 36.0611 18.9399C37.152 18.9121 38.2356 19.127 39.2347 19.5693C40.0747 19.9302 40.8142 20.4928 41.3886 21.2079C41.9273 21.9082 42.3392 22.6987 42.6053 23.5432C42.8644 24.357 42.9976 25.2061 43 26.0607C43 26.5468 42.9835 26.9885 42.9508 27.3858L42.9215 27.7261L42.8908 28.049L42.8727 28.2125C42.8713 28.2241 42.8699 28.2356 42.8684 28.2471C42.8599 28.3201 42.8251 28.3874 42.7705 28.4362C42.716 28.4851 42.6456 28.5121 42.5726 28.5121L42.4824 28.514L42.37 28.5198L42.2825 28.5262L42.078 28.5437L41.8983 28.5617C41.8495 28.5669 41.7988 28.5717 41.7461 28.5761L41.5832 28.5891L41.4091 28.6006L41.2243 28.6103L41.0286 28.6186L40.9265 28.622L40.7145 28.6278C40.5049 28.633 40.29 28.6199 40.0696 28.6037L39.7353 28.579C39.5632 28.5663 39.3906 28.5595 39.218 28.5586ZM32.7397 25.5409H37.2179L37.5994 25.5384L37.8586 25.5347L38.0266 25.5308L38.215 25.5243C38.3836 25.5073 38.5465 25.453 38.6918 25.3652V25.1665C38.6852 24.9074 38.641 24.6507 38.5605 24.4046C38.383 23.8394 38.0263 23.3486 37.5451 23.0074C37.0639 22.6663 36.4848 22.4937 35.8968 22.5162C35.3433 22.4825 34.7921 22.6118 34.3103 22.8882C33.8285 23.1647 33.437 23.5764 33.1836 24.0732C32.9583 24.5353 32.8084 25.0308 32.7397 25.5409Z" fill="#252525"/>
</g>
</svg>
