<svg width="50" height="50" viewBox="0 0 50 50" fill="none" xmlns="http://www.w3.org/2000/svg">
<g id="AI">
<path fill-rule="evenodd" clip-rule="evenodd" d="M39 3H11C6.58172 3 3 6.58172 3 11V39C3 43.4183 6.58172 47 11 47H39C43.4183 47 47 43.4183 47 39V11C47 6.58172 43.4183 3 39 3ZM11 0C4.92487 0 0 4.92487 0 11V39C0 45.0751 4.92487 50 11 50H39C45.0751 50 50 45.0751 50 39V11C50 4.92487 45.0751 0 39 0H11Z" fill="#252525"/>
<path d="M25.0707 32.3149H16.1188L14.2973 37.9728C14.2726 38.076 14.2125 38.1673 14.1276 38.231C14.0427 38.2947 13.9383 38.3268 13.8323 38.3217H9.29813C9.03975 38.3217 8.94926 38.1795 9.02689 37.8952L16.7775 15.5736C16.8549 15.3412 16.9326 15.0765 17.01 14.7793C17.1115 14.2621 17.1634 13.7368 17.165 13.2099C17.1597 13.173 17.1631 13.1354 17.1749 13.1001C17.1866 13.0648 17.2064 13.0327 17.2328 13.0063C17.2591 12.98 17.2912 12.9601 17.3265 12.9484C17.3618 12.9366 17.3994 12.9332 17.4362 12.9384H23.598C23.7786 12.9384 23.8819 13.0032 23.9081 13.1325L32.7049 37.934C32.7825 38.1926 32.7049 38.3219 32.4725 38.3217H27.4344C27.3479 38.3313 27.2609 38.3091 27.1896 38.2591C27.1183 38.2092 27.0676 38.135 27.047 38.0505L25.0707 32.3149ZM17.5139 27.4321H23.6368L23.5495 27.144L23.4094 26.6877L23.3094 26.3673L23.1499 25.8627L22.8107 24.8005L21.7377 21.406C21.5449 20.7962 21.3598 20.184 21.1826 19.5696L21.0409 19.0709L20.8753 18.4812L20.6225 17.5673L20.5751 17.3951H20.5365C20.3426 18.3253 20.1065 19.2462 19.8289 20.1549L19.2539 22.0044L18.6182 24.0606C18.5605 24.2474 18.5031 24.4323 18.4456 24.6148L18.2741 25.1559L18.1035 25.6844L17.9338 26.1998L17.765 26.7024C17.7091 26.8678 17.6531 27.0309 17.5974 27.192L17.5139 27.4321ZM37.9361 17.0463C37.5408 17.0621 37.1467 16.9944 36.7794 16.8475C36.4121 16.7006 36.08 16.4778 35.8047 16.1937C35.5302 15.8973 35.317 15.5496 35.1773 15.1705C35.0376 14.7914 34.9742 14.3884 34.9908 13.9848C34.9767 13.5852 35.0471 13.1871 35.1974 12.8165C35.3476 12.4459 35.5744 12.1112 35.8627 11.8343C36.419 11.3003 37.1598 11.0014 37.9309 11L38.0135 11.0009C38.9436 11.0009 39.6736 11.2785 40.2033 11.834C40.4706 12.1227 40.6783 12.4612 40.8146 12.8303C40.9509 13.1993 41.0131 13.5917 40.9976 13.9848C41.0138 14.39 40.9484 14.7944 40.8053 15.174C40.6622 15.5535 40.4443 15.9003 40.1644 16.194C39.8819 16.4724 39.5466 16.6915 39.1781 16.8384C38.8096 16.9853 38.4155 17.057 38.0189 17.0492L37.9361 17.0463ZM35.262 37.934V19.4102C35.262 19.1778 35.3649 19.0614 35.5721 19.0614H40.3389C40.5454 19.0614 40.6487 19.1776 40.6489 19.4102V37.934C40.6489 38.1926 40.5456 38.3219 40.3389 38.3217H35.6109C35.3907 38.3217 35.2747 38.2057 35.2632 37.9737L35.262 37.934Z" fill="#252525"/>
</g>
</svg>
