<svg width="50" height="50" viewBox="0 0 50 50" fill="none" xmlns="http://www.w3.org/2000/svg">
<g id="BLENDER">
<path fill-rule="evenodd" clip-rule="evenodd" d="M39 3H11C6.58172 3 3 6.58172 3 11V39C3 43.4183 6.58172 47 11 47H39C43.4183 47 47 43.4183 47 39V11C47 6.58172 43.4183 3 39 3ZM11 0C4.92487 0 0 4.92487 0 11V39C0 45.0751 4.92487 50 11 50H39C45.0751 50 50 45.0751 50 39V11C50 4.92487 45.0751 0 39 0H11Z" fill="#252525"/>
<path d="M25.7221 26.7439C25.7873 25.5949 26.3426 24.5809 27.1813 23.8627C28.0612 23.1217 29.1711 22.7198 30.315 22.728C31.5192 22.728 32.6256 23.1589 33.4472 23.8627C34.2859 24.5809 34.8398 25.5949 34.9036 26.7425C34.9673 27.9245 34.4998 29.0204 33.6782 29.8348C32.7731 30.7111 31.5664 31.1945 30.315 31.1821C29.0627 31.1947 27.855 30.7113 26.949 29.8348C26.1273 29.0204 25.6598 27.9245 25.7236 26.7439M18.4121 29.0664C18.4206 29.5174 18.5623 30.3907 18.7748 31.0743C19.2335 32.5452 20.0038 33.8967 21.0316 35.0342C22.1338 36.2629 23.4791 37.2422 24.9798 37.9082C26.6131 38.6381 28.38 39.0101 30.1648 38.9998C31.9494 39.0034 33.7147 38.6255 35.3456 37.891C36.8452 37.2186 38.1892 36.2352 39.291 35.004C40.3171 33.8628 41.0866 32.5092 41.5463 31.037C41.9884 29.6106 42.1094 28.1019 41.9005 26.6218C41.7016 25.2039 41.2112 23.844 40.4612 22.6304C39.7663 21.5014 38.8777 20.5076 37.8375 19.696H37.8403L27.2181 11.4273L27.1898 11.4058C26.4928 10.8628 25.3212 10.8657 24.5548 11.4086C23.7799 11.9573 23.6921 12.8665 24.3806 13.441L24.3791 13.4424L28.8076 17.0949L15.3068 17.1093H15.2884C14.172 17.1107 13.0996 17.8533 12.8871 18.7926C12.669 19.7477 13.4255 20.5406 14.5871 20.5449V20.5478L21.4296 20.5334L9.21794 30.0373L9.16978 30.0732C8.01802 30.9666 7.64686 32.4546 8.37219 33.3954C9.10886 34.3534 10.6743 34.3548 11.8388 33.4011L18.5028 27.8728C18.5028 27.8728 18.405 28.6197 18.4135 29.0664H18.4121ZM35.5397 31.567C34.1655 32.986 32.2445 33.7904 30.1634 33.7932C28.0809 33.799 26.1585 33.0004 24.7843 31.5842C24.1354 30.9238 23.6348 30.1291 23.3166 29.2546C23.025 28.4317 22.9098 27.5553 22.9787 26.6837C23.0476 25.8122 23.299 24.9655 23.7161 24.2002C24.1311 23.4438 24.6856 22.7753 25.3496 22.2311C26.6841 21.128 28.3826 20.532 30.1606 20.5291C31.9399 20.5262 33.6385 21.118 34.9744 22.2167C35.6544 22.7783 36.2069 23.4433 36.6064 24.1801C37.0199 24.9352 37.2719 25.7701 37.3459 26.6304C37.421 27.5121 37.3054 28.3998 37.0073 29.2316C36.6891 30.1075 36.1891 30.9039 35.5411 31.567" fill="#252525"/>
</g>
</svg>
