<svg width="50" height="50" viewBox="0 0 50 50" fill="none" xmlns="http://www.w3.org/2000/svg">
<g id="FIGMA">
<path fill-rule="evenodd" clip-rule="evenodd" d="M39 3H11C6.58172 3 3 6.58172 3 11V39C3 43.4183 6.58172 47 11 47H39C43.4183 47 47 43.4183 47 39V11C47 6.58172 43.4183 3 39 3ZM11 0C4.92487 0 0 4.92487 0 11V39C0 45.0751 4.92487 50 11 50H39C45.0751 50 50 45.0751 50 39V11C50 4.92487 45.0751 0 39 0H11Z" fill="#252525"/>
<path d="M33.3438 20.7071C34.3753 19.9736 35.1436 18.9389 35.5386 17.7511C35.9336 16.5633 35.935 15.2835 35.5425 14.0949C35.1501 12.9063 34.384 11.87 33.3541 11.1344C32.3241 10.3988 31.083 10.0017 29.8088 10H20.0372C18.763 10.0017 17.5219 10.3988 16.4919 11.1344C15.462 11.87 14.6959 12.9063 14.3035 14.0949C13.911 15.2835 13.9124 16.5633 14.3074 17.7511C14.7024 18.9389 15.4707 19.9736 16.5022 20.7071C15.7278 21.2539 15.097 21.9734 14.6619 22.8062C14.2269 23.6391 14 24.5614 14 25.4971C14 26.4328 14.2269 27.3551 14.6619 28.1879C15.097 29.0207 15.7278 29.7402 16.5022 30.2871C15.6645 30.8806 14.9963 31.675 14.5616 32.5944C14.1269 33.5137 13.9403 34.527 14.0197 35.5373C14.0991 36.5476 14.4418 37.521 15.0149 38.3643C15.5881 39.2075 16.3725 39.8922 17.293 40.353C18.2136 40.8137 19.2394 41.035 20.2721 40.9955C21.3049 40.9561 22.3101 40.6573 23.1912 40.1277C24.0724 39.5982 24.8002 38.8557 25.3047 37.9713C25.8092 37.0869 26.0736 36.0904 26.0726 35.0771V30.1321C26.699 30.6503 27.4266 31.038 28.2109 31.2715C28.9952 31.505 29.8197 31.5794 30.6343 31.4903C31.4489 31.4011 32.2365 31.1502 32.9489 30.7529C33.6613 30.3555 34.2838 29.8201 34.7782 29.1791C35.2727 28.5382 35.6288 27.8053 35.8248 27.025C36.0209 26.2448 36.0528 25.4335 35.9185 24.6408C35.7843 23.8481 35.4868 23.0904 35.0441 22.4141C34.6015 21.7378 34.0229 21.157 33.3438 20.7071ZM33.5449 15.9171C33.5412 16.8874 33.1463 17.8169 32.4465 18.5031C31.7466 19.1892 30.7985 19.5763 29.8088 19.58H26.0726V12.2541H29.8088C30.7985 12.2578 31.7466 12.6449 32.4465 13.3311C33.1463 14.0172 33.5412 14.9467 33.5449 15.9171ZM16.3011 15.9171C16.3048 14.9467 16.6997 14.0172 17.3995 13.3311C18.0994 12.6449 19.0475 12.2578 20.0372 12.2541H23.7734V19.58H20.0372C19.0475 19.5763 18.0994 19.1892 17.3995 18.5031C16.6997 17.8169 16.3048 16.8874 16.3011 15.9171ZM16.3011 25.4971C16.3048 24.5267 16.6997 23.5972 17.3995 22.9111C18.0994 22.2249 19.0475 21.8378 20.0372 21.8341H23.7734V29.16H20.0372C19.0475 29.1563 18.0994 28.7692 17.3995 28.0831C16.6997 27.3969 16.3048 26.4674 16.3011 25.4971ZM20.0372 38.74C19.0463 38.74 18.096 38.3541 17.3954 37.6672C16.6947 36.9802 16.3011 36.0485 16.3011 35.0771C16.3011 34.1056 16.6947 33.1739 17.3954 32.487C18.096 31.8 19.0463 31.4141 20.0372 31.4141H23.7734V35.0771C23.7696 36.0474 23.3748 36.9769 22.6749 37.6631C21.9751 38.3492 21.027 38.7363 20.0372 38.74ZM29.8088 29.16C28.8179 29.16 27.8676 28.7741 27.1669 28.0872C26.4662 27.4002 26.0726 26.4685 26.0726 25.4971C26.0726 24.5256 26.4662 23.5939 27.1669 22.907C27.8676 22.22 28.8179 21.8341 29.8088 21.8341C30.7997 21.8341 31.75 22.22 32.4506 22.907C33.1513 23.5939 33.5449 24.5256 33.5449 25.4971C33.5449 26.4685 33.1513 27.4002 32.4506 28.0872C31.75 28.7741 30.7997 29.16 29.8088 29.16Z" fill="#252525"/>
</g>
</svg>
