<svg width="50" height="50" viewBox="0 0 50 50" fill="none" xmlns="http://www.w3.org/2000/svg">
<g id="ID">
<path fill-rule="evenodd" clip-rule="evenodd" d="M39 3H11C6.58172 3 3 6.58172 3 11V39C3 43.4183 6.58172 47 11 47H39C43.4183 47 47 43.4183 47 39V11C47 6.58172 43.4183 3 39 3ZM11 0C4.92487 0 0 4.92487 0 11V39C0 45.0751 4.92487 50 11 50H39C45.0751 50 50 45.0751 50 39V11C50 4.92487 45.0751 0 39 0H11Z" fill="#252525"/>
<path d="M16.9355 15.1573V37.3034C16.9355 37.5354 16.8282 37.6512 16.6135 37.6512H12.2859C12.095 37.6512 11.9996 37.5352 12 37.3034V15.1573C12 14.972 12.1073 14.8793 12.3218 14.8791H16.6493C16.6857 14.8741 16.7228 14.8769 16.758 14.8872C16.7932 14.8975 16.8256 14.9152 16.8531 14.9389C16.8805 14.9627 16.9023 14.992 16.9169 15.0248C16.9316 15.0575 16.9387 15.093 16.9378 15.1287L16.9355 15.1573ZM29.9694 37.9965L29.7391 37.9988C28.093 38.0231 26.462 37.6906 24.9646 37.0254C23.5697 36.3978 22.4036 35.3734 21.6206 34.0875C20.8295 32.8103 20.4244 31.2183 20.4052 29.3119L20.4046 29.1682C20.3912 27.5725 20.8107 26.0016 21.6208 24.6138C22.4328 23.2381 23.6172 22.105 25.0452 21.3377L25.1614 21.2761C26.7108 20.4419 28.5826 20.0246 30.7764 20.0246L30.8227 20.0248L30.9253 20.0271L31.0415 20.0315L31.1713 20.038L31.3144 20.0467L31.4708 20.0578L31.8242 20.086L31.9208 20.0941V13.2454C31.9208 13.0835 31.9924 13.0019 32.1353 13.0019H36.6418C36.6709 12.9978 36.7006 13.0004 36.7286 13.0094C36.7565 13.0185 36.7819 13.0337 36.8027 13.054C36.8235 13.0742 36.8392 13.0989 36.8485 13.126C36.8578 13.1532 36.8605 13.1821 36.8563 13.2104V33.7574C36.8577 34.1866 36.8757 34.6157 36.91 35.0437L36.9437 35.4919L36.9735 35.9091L36.9993 36.2952C37.0038 36.3674 36.9857 36.4393 36.9474 36.5013C36.9091 36.5634 36.8525 36.6128 36.7848 36.643C35.6223 37.1143 34.4114 37.4638 33.1726 37.6858C32.1157 37.8755 31.0441 37.9794 29.9694 37.9965ZM31.9208 33.6877V24.1966C31.7275 24.1457 31.5301 24.1108 31.3308 24.0923C31.0872 24.0685 30.8424 24.0569 30.5975 24.0575C29.7295 24.0492 28.8719 24.2397 28.0941 24.6138C27.3364 24.9799 26.6894 25.531 26.2164 26.2131C25.7275 26.9083 25.483 27.824 25.4832 28.9597C25.4658 29.7175 25.5931 30.4718 25.8587 31.1845C26.0748 31.7588 26.4165 32.2808 26.8602 32.7144C27.2849 33.1132 27.7991 33.4107 28.3623 33.5835C28.9572 33.7707 29.5789 33.8647 30.2041 33.8618C30.5378 33.8618 30.8477 33.8501 31.134 33.8268C31.3624 33.8101 31.5888 33.7735 31.8104 33.7175L31.9208 33.6877Z" fill="#252525"/>
</g>
</svg>
