<svg width="50" height="50" viewBox="0 0 50 50" fill="none" xmlns="http://www.w3.org/2000/svg">
<g id="LR">
<path fill-rule="evenodd" clip-rule="evenodd" d="M39 3H11C6.58172 3 3 6.58172 3 11V39C3 43.4183 6.58172 47 11 47H39C43.4183 47 47 43.4183 47 39V11C47 6.58172 43.4183 3 39 3ZM11 0C4.92487 0 0 4.92487 0 11V39C0 45.0751 4.92487 50 11 50H39C45.0751 50 50 45.0751 50 39V11C50 4.92487 45.0751 0 39 0H11Z" fill="#252525"/>
<path d="M26.1124 37.9966H11.3769C11.1274 37.9966 11.0028 37.8566 11.003 37.5766V13.3466C10.9965 13.2999 11.0006 13.2523 11.0152 13.2076C11.0298 13.1629 11.0544 13.1223 11.0871 13.089C11.1197 13.0556 11.1595 13.0305 11.2033 13.0156C11.2471 13.0007 11.2937 12.9964 11.3395 13.003H15.9023C15.9379 12.9979 15.9741 13.0013 16.0082 13.0129C16.0423 13.0246 16.0732 13.0441 16.0986 13.07C16.124 13.096 16.1431 13.1275 16.1545 13.1623C16.1659 13.1971 16.1691 13.2341 16.1641 13.2703V33.189H26.8977C27.122 33.189 27.2093 33.3034 27.1597 33.5323L26.4863 37.6533C26.4847 37.7095 26.4704 37.7647 26.4444 37.8143C26.4185 37.864 26.3816 37.9068 26.3367 37.9395C26.2673 37.9763 26.1905 37.9957 26.1124 37.9966ZM29.8146 19.0318H33.8912C34.1185 19.0341 34.3171 19.1896 34.3772 19.4136C34.4663 19.5807 34.5295 19.7609 34.5645 19.9477C34.6166 20.1933 34.6538 20.4417 34.6765 20.6919C34.7011 20.9589 34.7135 21.2451 34.7139 21.5504C35.413 20.7199 36.2561 20.0278 37.2009 19.5089C38.2624 18.9234 39.4541 18.6276 40.6605 18.6503C40.7062 18.6437 40.7529 18.648 40.7967 18.6629C40.8405 18.6778 40.8803 18.7029 40.9129 18.7363C40.9456 18.7696 40.9702 18.8102 40.9848 18.8549C40.9994 18.8996 41.0035 18.9472 40.997 18.9938V23.611C40.997 23.7892 40.8724 23.8781 40.6231 23.8781C39.1165 23.783 37.6096 24.0577 36.2285 24.6794C35.7592 24.8865 35.3337 25.1846 34.9757 25.557V37.6533C34.9757 37.8822 34.8759 37.9966 34.6765 37.9966H30.151C30.1002 38.004 30.0485 37.9993 29.9998 37.9827C29.9511 37.9662 29.9068 37.9383 29.8705 37.9013C29.8343 37.8643 29.8069 37.8191 29.7907 37.7694C29.7745 37.7198 29.7698 37.6669 29.7771 37.6151V24.4885C29.7771 24.169 29.7752 23.8388 29.771 23.4982L29.7634 22.9796C29.7619 22.8918 29.7604 22.8034 29.7584 22.7143C29.7489 22.2503 29.736 21.7864 29.7196 21.3227L29.7022 20.8636C29.6857 20.3394 29.6358 19.8168 29.5528 19.2991C29.544 19.2646 29.5437 19.2283 29.5518 19.1935C29.5599 19.1588 29.5762 19.1266 29.5992 19.0997C29.6223 19.0728 29.6515 19.0521 29.6842 19.0393C29.7169 19.0266 29.7522 19.0222 29.7869 19.0265L29.8146 19.0318Z" fill="#252525"/>
</g>
</svg>
