<svg width="50" height="50" viewBox="0 0 50 50" fill="none" xmlns="http://www.w3.org/2000/svg">
<g id="PR">
<path fill-rule="evenodd" clip-rule="evenodd" d="M39 3H11C6.58172 3 3 6.58172 3 11V39C3 43.4183 6.58172 47 11 47H39C43.4183 47 47 43.4183 47 39V11C47 6.58172 43.4183 3 39 3ZM11 0C4.92487 0 0 4.92487 0 11V39C0 45.0751 4.92487 50 11 50H39C45.0751 50 50 45.0751 50 39V11C50 4.92487 45.0751 0 39 0H11Z" fill="#252525"/>
<path d="M9 37.6901V13.4012C9 13.2359 9.06967 13.1416 9.23229 13.1416L9.5693 13.141L9.83011 13.1388L10.0141 13.1352L10.21 13.1301L10.4205 13.1226L10.5327 13.1179C10.7416 13.1091 10.9539 13.1036 11.1705 13.0989L11.8356 13.0848C11.9112 13.083 11.9876 13.081 12.0644 13.0786L12.2974 13.0708C12.5064 13.0628 12.7206 13.0575 12.9401 13.0531L13.6134 13.0409L14.0795 13.0305L14.3179 13.0235C14.7977 13.008 15.2673 13.0027 15.7334 13.0009L16.431 13C18.3352 13 19.9143 13.2359 21.2148 13.7316C22.3806 14.134 23.4435 14.7952 24.3265 15.6672C25.0748 16.4303 25.653 17.348 26.0218 18.3581C26.3701 19.3495 26.5558 20.3646 26.5558 21.4268C26.5558 23.4567 26.0915 25.1325 25.1625 26.4545C24.2336 27.7763 22.9332 28.7677 21.4238 29.3342C19.8973 29.9046 18.219 30.122 16.3887 30.1359H15.7249L15.4665 30.1332L15.3009 30.1293L15.2033 30.1251L15.1158 30.1197L15.0376 30.1131C14.9875 30.1081 14.9373 30.1043 14.887 30.1016L14.7738 30.0965L14.6497 30.0932L14.4427 30.0903L14.0392 30.0894V37.6664C14.0623 37.8317 13.9463 37.9734 13.7837 37.997H9.27866C9.09296 37.997 9 37.9025 9 37.6901ZM14.0623 17.6971V25.6282L14.3353 25.6481C14.5459 25.6645 14.7569 25.6736 14.968 25.6756H16.1989C17.1046 25.6756 18.0102 25.5339 18.8693 25.2507C19.6125 25.0382 20.2626 24.5897 20.7736 23.9995C21.2612 23.4095 21.4935 22.6069 21.4935 21.5684C21.5154 20.8307 21.33 20.102 20.9593 19.4675C20.5811 18.8795 20.0534 18.4214 19.4175 18.1556L19.3339 18.122C18.4746 17.7679 17.5456 17.6263 16.5936 17.65L16.0567 17.6507L15.8044 17.6522L15.5634 17.6555L15.3346 17.6608C15.2231 17.6639 15.1162 17.6681 15.0146 17.6737C14.9647 17.6711 14.9147 17.6691 14.8648 17.6675L14.7257 17.6644C14.7039 17.6641 14.6821 17.664 14.6604 17.6639L14.5371 17.6646L14.4252 17.6677L14.3734 17.6699L14.2783 17.6754L14.1947 17.6821L14.157 17.6856L14.0911 17.6934L14.0623 17.6971ZM29.8068 19.0663H33.8708C34.09 19.0663 34.2681 19.2136 34.3458 19.409L34.3584 19.444C34.4281 19.6328 34.4745 19.8215 34.4978 20.034C34.5441 20.2701 34.5907 20.5296 34.6138 20.7658L34.6334 20.9941C34.6486 21.1891 34.6604 21.3964 34.6604 21.6155C35.3254 20.8263 36.123 20.1632 37.016 19.6573L37.1451 19.5856C38.2134 18.9718 39.444 18.6651 40.6747 18.6651C40.8374 18.6414 40.9767 18.7593 41 18.9246V23.622C41 23.8107 40.8837 23.8815 40.6284 23.8815C39.8481 23.8594 39.0478 23.9198 38.2837 24.0814L38.1204 24.1177C37.447 24.2593 36.7967 24.4717 36.1698 24.755C35.7285 24.9674 35.3105 25.2507 34.9854 25.6282V37.6664C34.9854 37.9025 34.8925 37.997 34.6835 37.997H30.1088C29.9231 38.0205 29.7605 37.9025 29.7372 37.7138V24.5425C29.7372 23.976 29.7372 23.3859 29.7141 22.7722L29.7002 22.3119L29.6814 21.3914C29.6777 21.2378 29.6734 21.0844 29.6675 20.9311C29.6675 20.388 29.6211 19.8689 29.5748 19.3258C29.5515 19.2079 29.6211 19.0899 29.7372 19.0663C29.7372 19.0461 29.7714 19.0432 29.7957 19.0574L29.8068 19.0663Z" fill="#252525"/>
</g>
</svg>
