<svg width="50" height="50" viewBox="0 0 50 50" fill="none" xmlns="http://www.w3.org/2000/svg">
<g id="PS">
<path fill-rule="evenodd" clip-rule="evenodd" d="M39 3H11C6.58172 3 3 6.58172 3 11V39C3 43.4183 6.58172 47 11 47H39C43.4183 47 47 43.4183 47 39V11C47 6.58172 43.4183 3 39 3ZM11 0C4.92487 0 0 4.92487 0 11V39C0 45.0751 4.92487 50 11 50H39C45.0751 50 50 45.0751 50 39V11C50 4.92487 45.0751 0 39 0H11Z" fill="#252525"/>
<path d="M9 37.229V14.3578C9 14.1911 9.07156 14.1073 9.21447 14.1073L9.44059 14.1067L9.8271 14.1025L10.3642 14.0919L12.1636 14.0538L14.093 14.0179C14.7716 14.0063 15.4443 14 16.1113 14C17.9211 14 19.4452 14.2268 20.684 14.6801C21.8015 15.0587 22.8205 15.6823 23.6671 16.5054C24.3847 17.2188 24.9393 18.0798 25.2926 19.0289C25.6268 19.9524 25.7961 20.9276 25.7929 21.91C25.7929 23.8193 25.3521 25.3941 24.4709 26.6346C23.609 27.8448 22.4068 28.7703 21.0177 29.2931L20.8985 29.3369C19.448 29.879 17.8416 30.0749 16.0799 30.0872L15.8061 30.088L15.3998 30.0859L15.1949 30.083L14.9665 30.0776L14.8288 30.0722L14.7452 30.0678L14.5394 30.0603L14.2879 30.0551L13.9093 30.0524L13.8251 30.0522V37.1931C13.8314 37.2369 13.8274 37.2815 13.8134 37.3235C13.7995 37.3654 13.7759 37.4035 13.7447 37.4348C13.7135 37.4661 13.6755 37.4896 13.6336 37.5036C13.5917 37.5176 13.5472 37.5216 13.5035 37.5153H9.25025C9.08321 37.5153 9 37.4203 9 37.229ZM13.8253 18.4024V25.862C14.1104 25.885 14.3963 25.897 14.6824 25.8978H15.8614C16.6743 25.8951 17.4825 25.7738 18.2606 25.5379L18.4157 25.4893C19.1236 25.2787 19.756 24.8686 20.2378 24.308C20.6855 23.7791 20.9174 23.0502 20.9334 22.1213L20.9345 22.0173C20.9532 21.325 20.7735 20.6418 20.4163 20.0488C20.0409 19.4754 19.4983 19.0317 18.8624 18.7781C18.0319 18.4548 17.1449 18.3026 16.2544 18.3309L15.8013 18.3321L15.5155 18.3346L15.2428 18.3382L14.8579 18.3457L14.5771 18.3536L14.4313 18.359L14.2364 18.3682L14.0704 18.3784L13.9757 18.3859L13.8939 18.3938L13.858 18.398L13.8253 18.4024ZM39.6056 24.5056C38.9824 24.1847 38.3214 23.9437 37.6381 23.7882L37.48 23.7541C36.7283 23.5812 35.9609 23.486 35.1899 23.47L34.9973 23.4677C34.5452 23.4554 34.0939 23.5097 33.6576 23.6288C33.3798 23.6907 33.1329 23.8491 32.9607 24.0761C32.8443 24.2576 32.7823 24.4688 32.7822 24.6846C32.7887 24.8939 32.8641 25.0952 32.9965 25.2571C33.1861 25.4793 33.414 25.6655 33.6694 25.8067L33.7468 25.8478C34.2562 26.1226 34.781 26.3675 35.3187 26.5814C36.5176 26.9835 37.6632 27.5304 38.7302 28.21C39.4572 28.6697 40.0588 29.3031 40.4809 30.0534C40.8358 30.7638 41.0136 31.5497 40.9989 32.3439C41.0203 33.3928 40.7211 34.4232 40.1415 35.2969C39.5209 36.1837 38.659 36.8732 37.6585 37.2831C36.6107 37.7446 35.3239 37.9828 33.7982 37.9984L33.6397 37.9993C32.6939 38.0088 31.7494 37.9259 30.8197 37.7517L30.6209 37.7129C29.8381 37.5691 29.0761 37.3286 28.3524 36.997C28.2796 36.9594 28.2182 36.9031 28.1742 36.8339C28.1303 36.7647 28.1055 36.685 28.1023 36.6031V32.702C28.0981 32.6641 28.1041 32.6258 28.1199 32.5911C28.1356 32.5564 28.1605 32.5266 28.1918 32.505C28.2225 32.4876 28.2577 32.4801 28.2928 32.4833C28.3278 32.4865 28.3611 32.5003 28.3882 32.5229C29.2428 33.0279 30.1709 33.3962 31.1388 33.6146C31.9921 33.8289 32.8673 33.9431 33.7468 33.9547C34.5802 33.9547 35.1934 33.8472 35.5866 33.6325C35.7641 33.5511 35.9143 33.4199 36.0189 33.2547C36.1236 33.0896 36.1782 32.8976 36.1761 32.702C36.1761 32.3923 35.9974 32.0938 35.6403 31.8072C35.4905 31.6872 35.2756 31.5565 34.996 31.4154L34.8623 31.3495L34.7195 31.2822L34.6447 31.248L34.4878 31.1784C34.4606 31.1665 34.4333 31.1547 34.4061 31.143L34.2355 31.0713L34.1467 31.0348L33.9623 30.9609L33.8667 30.9233L33.6684 30.8468L33.461 30.7691C32.3392 30.378 31.2756 29.8361 30.2993 29.1585C29.601 28.6719 29.026 28.0284 28.6203 27.2794C28.269 26.5741 28.0914 25.7948 28.1023 25.0066C28.1003 24.0596 28.36 23.1305 28.8525 22.3222C29.4141 21.4323 30.2204 20.7237 31.1746 20.2823C32.2224 19.7577 33.5322 19.4951 35.1042 19.4947C36.0249 19.4873 36.9448 19.5531 37.8551 19.6916C38.5142 19.7754 39.1587 19.95 39.7701 20.2106C39.8685 20.2389 39.9478 20.3117 39.9844 20.4075C40.0087 20.4949 40.0206 20.5851 40.0202 20.676V24.2909C40.0254 24.3764 39.9844 24.4583 39.913 24.5056C39.8653 24.5294 39.8127 24.5418 39.7593 24.5418C39.706 24.5418 39.6534 24.5294 39.6056 24.5056Z" fill="#252525"/>
</g>
</svg>
